<svg width="561" height="494" viewBox="0 0 561 494" fill="none" xmlns="http://www.w3.org/2000/svg">
<g opacity="0.5">
<path d="M163.351 493.748C161.801 493.748 160.238 493.716 158.668 493.634C157.727 493.583 156.507 493.557 155.103 493.526C148.112 493.367 137.601 493.138 133.839 489.966C130.726 487.341 128.965 481.379 127.262 475.621C126.226 472.112 125.248 468.801 124.047 466.512C123.278 465.044 122.572 463.55 121.873 462.063C119.045 456.114 116.376 450.495 110.295 448.08C108.317 447.424 106.257 447.049 104.175 446.968C101.754 446.745 99.2498 446.51 96.8985 445.48C95.5425 444.774 94.348 443.793 93.3906 442.601C92.2403 441.33 91.0456 440.059 89.2599 439.359C86.6659 438.393 83.9449 437.811 81.1829 437.63C77.0967 437.211 73.2393 436.817 68.4731 431.751C64.1009 427.111 61.1586 420.819 58.5722 415.264C57.9367 413.878 57.3012 412.537 56.6657 411.253C56.0302 409.969 55.3947 408.66 54.8228 407.439C51.747 400.924 49.1034 395.299 43.1044 390.64C41.4521 389.369 39.8634 388.187 38.3255 387.062C33.6738 383.661 29.2762 380.451 25.1201 375.081C13.0458 359.457 8.26694 332.737 7.09129 324.919C6.513 321.06 6.29058 317.056 6.07451 313.179C5.80125 308.266 5.51528 303.194 4.50485 298.42C3.94562 295.77 3.23388 293.335 2.53484 290.996C0.914347 285.53 -0.610826 280.369 0.247083 273.638C1.6388 262.712 9.57605 257.08 17.2464 251.64C22.5972 247.826 28.1323 243.911 31.691 238.158C40.9628 223.088 45.7099 208.45 50.1583 193.526L50.4506 192.535C54.8991 177.49 59.983 160.443 56.7102 144.356C55.2676 137.332 49.3131 132.597 43.5556 128.021C37.08 122.872 30.401 117.559 30.0515 108.953C26.8359 108.044 22.7561 107.618 18.797 107.205C11.3808 106.429 4.97512 105.756 3.8503 102.075C3.01781 99.3613 5.2865 95.9227 11.2093 90.9332C17.9264 85.2763 23.919 78.0114 29.6702 70.9879C34.0487 65.6616 38.567 60.1826 43.4857 55.244C45.8942 52.835 48.4489 50.1591 51.1116 47.3625C59.9321 38.089 69.9284 27.5824 79.5751 22.0908C94.1017 13.7645 109.49 7.04263 125.47 2.04382C130.251 0.631983 135.216 -0.0557428 140.201 0.00352866C143.245 0.000593532 146.285 0.227941 149.294 0.683626C155.605 1.64339 158.827 3.96335 162.519 6.6456C164.46 8.10169 166.494 9.43076 168.607 10.6245L169.242 10.9741L169.141 11.705C168.701 14.3527 168.042 16.9591 167.171 19.4975C166.147 22.3937 165.44 25.3921 165.061 28.4405L164.025 37.714C166.408 42.4493 171.378 47.782 176.887 48.5193C181.393 49.1549 184.367 47.0447 187.564 44.8137C189.966 43.1611 192.457 41.4513 195.634 40.8157C196.656 40.6178 197.694 40.5157 198.735 40.5107C209.539 40.5107 212.869 52.4473 215.805 62.9793C217.076 67.5112 218.264 71.7888 219.929 74.8588C221.45 77.7934 222.82 80.8037 224.034 83.878C225.693 87.8887 227.256 91.6705 229.41 94.8803C232.804 99.9652 239.61 103.709 245.615 107.027C247.484 108.063 249.276 109.048 250.877 110.027C253.038 111.349 255.472 112.569 257.829 113.777C262.558 116.167 267.451 118.639 270.959 122.167C272.456 123.797 273.681 125.658 274.587 127.678C275.585 129.623 276.494 131.453 278.14 132.998C279.582 134.37 281.438 134.968 283.395 135.604C285.352 136.239 287.208 136.875 288.943 138.19C294.993 142.919 301.297 153.356 303.178 159.763C303.776 162.127 304.15 164.543 304.296 166.977C304.786 172.259 305.294 177.719 309.851 180.681C312.393 182.314 316.066 182.588 320.018 182.899C324.359 183.236 329.284 183.617 333.459 185.963L335.575 187.157C343.627 191.734 347.586 193.914 357.271 193.03C373.635 191.617 390.106 192.043 406.375 194.302C422.326 196.653 434.12 202.895 447.097 215.849C454.507 223.247 457.449 224.62 466.797 227.29C473.311 229.133 477.836 231.898 482.627 234.828C484.171 235.775 485.805 236.735 487.508 237.745C489.795 239.061 492.204 240.161 494.498 241.222C499.645 243.574 504.971 246.002 508.943 250.756C510.591 252.784 512.051 254.958 513.302 257.252C515.946 261.841 517.363 264.295 525.084 263.945C527.964 263.761 530.823 263.336 533.631 262.674C536.369 262.001 539.17 261.618 541.988 261.53C545.558 261.544 549.062 262.488 552.156 264.269C557.24 267.034 559.883 269.875 560.582 273.199C561.256 276.409 560.03 279.899 556.731 284.17C547.434 296.246 531.833 303.772 518.075 310.414C516.283 311.278 514.535 312.124 512.851 312.956C510.118 314.31 507.348 315.791 504.412 317.361C493.252 323.33 480.6 330.073 467.687 330.073C466.981 330.073 466.27 330.073 465.558 330.016C460.099 329.698 454.392 328.618 448.883 327.575C442.013 326.304 434.902 324.931 427.912 324.931C423.512 324.898 419.133 325.541 414.929 326.838C412.24 327.671 410.175 328.459 408.351 329.152C405.403 330.27 403.267 331.059 400.973 331.059C397.897 331.059 394.771 329.686 388.594 325.624C382.417 321.563 378.026 320.787 373.209 320.787C370.406 320.787 367.324 321.092 363.753 321.423L362.73 321.524C354.532 322.332 348.577 324.213 341.04 326.609L339.579 327.067C337.325 327.691 335.038 328.188 332.728 328.554C326.589 329.686 318.188 331.23 315.881 334.84C313.339 338.8 313.511 354.5 314.744 359.591C316.383 366.328 320.152 372.672 325.935 378.449C336.103 388.619 346.474 391.066 358.497 393.939C362.31 394.842 366.231 395.782 370.362 397.009C377.988 399.284 392.216 403.518 393.411 413.84C394.606 424.162 381.407 433.086 374.346 437.936L373.87 438.26C363.638 445.251 351.831 449.103 340.405 452.815C332.734 455.307 324.797 457.9 317.432 461.396C309.755 465.063 301.799 468.006 294.11 470.86C284.145 474.553 273.844 478.373 264.394 483.706C252.631 490.335 240.957 491.231 231.095 491.231C226.125 491.231 221.162 490.964 215.906 490.691L211.776 490.475C202.726 490.03 193.887 491.059 185.327 492.057C178.184 492.89 170.806 493.748 163.351 493.748ZM140.201 2.12645C135.434 2.06722 130.685 2.72282 126.112 4.0714C110.271 9.02868 95.0163 15.6952 80.6173 23.9531C71.2438 29.2922 61.362 39.678 52.6558 48.8498C49.9931 51.6528 47.4257 54.3478 45.0299 56.7631C40.1939 61.6 35.701 67.0662 31.3542 72.3608C25.5205 79.4542 19.4897 86.7954 12.6264 92.5731C6.10628 98.0711 5.63602 100.505 5.92199 101.472C6.64009 103.804 13.2428 104.491 19.0639 105.101C23.4297 105.558 27.9607 106.029 31.4686 107.154L32.2121 107.395V108.19C32.1677 116.218 38.3637 121.144 44.9219 126.362C50.9781 131.173 57.2377 136.157 58.8327 143.93C62.2453 160.545 57.0851 177.865 52.5287 193.151L52.2364 194.136C47.7498 209.2 42.9455 224.01 33.5212 239.264C29.7083 245.392 24.0271 249.434 18.4983 253.362C10.8724 258.784 3.6533 263.9 2.37597 273.899C1.57526 280.185 2.97333 284.914 4.59382 290.386C5.30557 292.776 6.03003 295.242 6.61467 297.975C7.65052 302.908 7.94284 308.062 8.22246 313.052C8.43217 316.865 8.65459 320.838 9.22018 324.594C12.2959 345.118 18.8732 363.506 26.8232 373.771C30.8014 378.907 34.8812 381.888 39.6029 385.339C41.1598 386.477 42.7803 387.653 44.4389 388.956C50.7938 393.926 53.5773 399.761 56.7674 406.524C57.3584 407.763 57.9558 409.035 58.5976 410.338C59.2394 411.641 59.8686 412.994 60.5041 414.393C63.046 419.802 65.8867 425.929 70.0364 430.283C74.2815 434.777 77.4398 435.101 81.437 435.514C84.391 435.712 87.3003 436.339 90.0733 437.376C92.3102 438.253 93.7337 439.798 94.992 441.19C95.7576 442.158 96.7081 442.964 97.7882 443.561C99.8217 444.451 102.052 444.66 104.41 444.876C106.647 445.086 108.96 445.296 111.108 446.148C117.971 448.868 120.812 454.855 123.818 461.192C124.504 462.635 125.197 464.11 125.959 465.553C127.23 468.019 128.253 471.432 129.321 475.042C130.865 480.254 132.607 486.153 135.231 488.39C138.409 491.079 148.913 491.314 155.173 491.454C156.603 491.485 157.848 491.511 158.801 491.562C167.749 492.019 176.557 490.996 185.098 489.998C193.741 488.994 202.682 487.939 211.896 488.403L216.04 488.619C221.264 488.892 226.208 489.159 231.114 489.159C240.703 489.159 252.034 488.295 263.371 481.9C272.967 476.491 283.351 472.646 293.385 468.921C301.011 466.087 308.942 463.15 316.542 459.527C324.028 455.955 332.029 453.355 339.769 450.845C351.049 447.184 362.71 443.395 372.688 436.563L373.171 436.232C379.881 431.637 392.381 423.088 391.346 414.139C390.31 405.189 376.945 401.204 369.809 399.049C365.735 397.835 361.834 396.907 358.059 396.005C345.718 393.062 335.067 390.519 324.486 379.949C318.423 373.898 314.464 367.237 312.736 360.093C311.566 355.294 311.052 338.552 314.14 333.696C316.943 329.311 325.509 327.734 332.398 326.469C334.618 326.112 336.818 325.637 338.988 325.046L340.456 324.582C348.082 322.166 354.157 320.26 362.571 319.427L363.594 319.325C367.222 318.963 370.349 318.652 373.26 318.652C379.411 318.652 384.203 320.158 389.782 323.838C399.734 330.385 400.967 329.667 407.62 327.137C409.387 326.469 411.573 325.637 414.325 324.779C418.741 323.44 423.335 322.784 427.95 322.834C435.169 322.834 442.369 324.194 449.334 325.51C455.053 326.59 460.417 327.607 465.736 327.919C478.782 328.681 491.931 321.658 503.465 315.493C506.42 313.916 509.184 312.423 511.968 311.043C513.658 310.204 515.412 309.359 517.204 308.501C530.753 301.961 546.112 294.518 555.111 282.873C557.996 279.123 559.095 276.193 558.562 273.638C558.028 271.083 555.6 268.553 551.19 266.131C548.4 264.519 545.236 263.664 542.013 263.653C539.341 263.746 536.686 264.115 534.089 264.752C531.165 265.434 528.189 265.87 525.192 266.055C516.162 266.43 514.122 262.877 511.478 258.294C510.289 256.109 508.902 254.037 507.335 252.104C503.668 247.705 498.794 245.481 493.634 243.123C491.263 242.042 488.81 240.923 486.44 239.557C484.686 238.553 483.066 237.567 481.502 236.614C476.641 233.633 472.44 231.065 466.206 229.304C456.566 226.584 453.28 225.059 445.565 217.355C432.945 204.751 421.487 198.681 406.032 196.38C389.932 194.138 373.631 193.711 357.436 195.109C347.084 196.056 342.61 193.577 334.488 188.969L332.385 187.774C328.623 185.657 324.124 185.314 319.821 184.984C315.627 184.66 311.662 184.348 308.694 182.441C303.273 178.914 302.695 172.659 302.18 167.149C302.054 164.862 301.718 162.592 301.176 160.367C299.39 154.284 293.233 144.222 287.666 139.875C286.242 138.756 284.558 138.21 282.772 137.637C280.675 136.957 278.502 136.252 276.71 134.548C274.803 132.75 273.761 130.665 272.732 128.65C271.918 126.831 270.822 125.151 269.484 123.673C266.218 120.387 261.484 117.991 256.902 115.677C254.506 114.463 252.034 113.211 249.797 111.864C248.227 110.904 246.461 109.925 244.624 108.914C238.403 105.476 231.361 101.58 227.676 96.088C225.407 92.7066 223.723 88.645 222.102 84.717C220.919 81.711 219.581 78.7684 218.092 75.9012C216.307 72.6151 215.087 68.223 213.79 63.5768C210.924 53.2927 207.963 42.659 198.767 42.659C197.861 42.664 196.956 42.7534 196.066 42.926C193.334 43.4535 191.148 44.979 188.835 46.5934C185.479 48.9388 181.965 51.3859 176.659 50.6613C170.227 49.7841 164.68 43.8603 162.042 38.3877L161.909 38.1081L163.002 28.2435C163.385 25.0463 164.116 21.9005 165.182 18.8619C165.927 16.6587 166.524 14.4078 166.967 12.1245C165.013 10.9798 163.125 9.72564 161.312 8.36809C157.823 5.82567 154.811 3.66462 149.008 2.78112C146.093 2.34491 143.149 2.12608 140.201 2.12645V2.12645Z" fill="url(#paint0_linear_7724_14661)"/>
<path d="M189.197 470.377C184.844 470.377 181.26 469.106 177.466 467.834C173.672 466.563 169.916 465.209 164.972 464.923C163.777 464.853 162.697 464.809 161.725 464.758C152.516 464.332 151.684 464.059 145.895 453.807C144.802 451.9 143.791 450.037 142.819 448.258C139.095 441.457 135.879 435.584 130.51 429.26C129.747 428.357 128.965 427.404 128.165 426.418C123.43 420.603 118.067 414.011 110.733 412.867C107.899 412.416 104.791 412.867 101.938 413.306C99.921 413.685 97.8763 413.898 95.8246 413.941C92.2698 413.945 88.7966 412.875 85.8601 410.871C80.8461 407.624 78.749 403.378 76.5312 398.89C75.3041 396.215 73.8274 393.661 72.1209 391.263C67.7424 385.409 61.7751 382.447 55.4584 379.314C53.2723 378.233 51.01 377.108 48.7921 375.85C32.3075 366.5 31.0811 351.595 29.7847 335.806C29.5877 333.359 29.3779 330.861 29.1492 328.338C28.7297 324.27 28.6471 319.916 28.5582 315.709C28.4438 309.492 28.3167 303.066 27.122 297.321C26.6109 295.024 25.9593 292.761 25.171 290.545C23.3345 285.041 21.7457 280.293 24.9677 272.271C27.4715 266.049 31.9962 259.489 35.987 253.699C36.9148 252.352 37.8236 251.036 38.6751 249.771C44.9601 240.408 46.7967 236.353 49.6246 225.662C50.7558 221.378 52.9482 217.508 55.0771 213.758C57.4792 209.518 59.9576 205.139 60.7965 200.251C62.417 190.965 63.5291 180.687 64.2281 173.765C64.5268 170.816 64.9589 167.74 65.3847 164.771C67.1895 152.091 69.0578 138.972 61.4764 128.58C60.7329 127.557 60.0148 126.673 59.3348 125.809C57.3712 123.362 55.6808 121.252 54.6894 117.864C54.2425 116.221 54.0961 114.512 54.2573 112.817C54.3526 110.859 54.4162 109.442 52.7957 107.669C50.5206 105.196 45.7354 104.402 41.1027 103.633C37.6393 103.061 34.3729 102.514 32.0661 101.275C27.2808 98.6939 24.7389 95.8655 24.2877 92.6176C23.5315 87.1259 29.1237 81.736 34.5254 76.5304C36.9461 74.3079 39.2216 71.9322 41.3378 69.418C42.0941 68.4519 43.2443 66.8056 44.7123 64.7209C53.9713 51.4876 64.4696 37.3962 71.765 37.3962C72.3814 37.3919 72.9933 37.5018 73.5698 37.7203L87.0485 26.3112L87.29 26.2477C93.2318 24.754 98.8495 22.434 104.283 20.1268C112.207 16.8026 120.399 13.3703 129.925 12.4105C131.863 12.2199 133.693 12.1182 135.365 12.1182C154.531 12.1182 155.986 25.4659 157.664 40.9492C157.861 42.7289 157.963 44.3306 158.058 45.7735C158.515 52.7206 158.693 55.3075 167.412 57.0491C168.579 57.2752 169.764 57.388 170.952 57.386C173.85 57.386 176.576 56.7504 179.455 56.1148C183.001 55.3075 186.693 54.4685 190.69 54.9071C201.068 56.0321 207.296 68.6489 212.793 79.7783C214.699 83.6301 216.497 87.2658 218.347 90.215C226.341 102.927 237.939 111.864 249.155 120.482C260.499 129.203 272.23 138.222 280.453 151.239C282.772 154.913 284.005 159.178 285.194 163.316C286.198 166.805 287.24 170.409 288.937 173.632C289.979 175.609 291.008 178.138 292.114 180.814C294.199 185.937 296.563 191.747 299.39 194.416C302.034 196.908 305.828 197.403 309.844 197.931C313.861 198.459 318.188 199.031 321.645 201.745C323.08 202.923 324.098 204.532 324.549 206.334C325.229 208.368 325.681 209.715 329.811 210.039C330.027 210.039 330.224 210.039 330.447 210.039C332.582 210.039 333.573 209.067 334.832 207.834C336.019 206.478 337.559 205.479 339.28 204.948C340.672 204.568 342.108 204.375 343.551 204.376C346.588 204.376 349.353 205.202 352.022 206.003C354.691 206.804 357.207 207.554 359.984 207.554C361.175 207.557 362.362 207.412 363.518 207.122C365.373 206.658 366.695 205.673 368.138 204.637C370.044 203.232 372.033 201.789 375.306 201.459C378.159 201.179 385.957 202.94 388.441 203.645C394.091 205.247 398.895 207.586 403.979 210.065C407.093 211.577 410.334 213.147 413.804 214.571C419.739 216.986 423.222 220.368 426.907 223.946C428.705 225.751 430.597 227.459 432.576 229.063C440.996 235.692 451.425 239.83 461.51 243.841C468.5 246.612 475.084 249.231 481.057 252.612C485.188 254.945 488.099 258.11 490.907 261.167C493.488 263.97 495.921 266.608 499.169 268.521C501.193 269.605 503.322 270.48 505.524 271.134C511.523 273.142 518.322 275.411 516.683 284.526C514.058 299.177 477.441 307.281 470.127 308.755C466.575 309.473 462.768 310.325 458.828 311.202C446.201 314.031 431.896 317.228 420 317.272C414.007 317.272 410.919 314.99 407.925 312.785C405.561 311.037 403.325 309.384 399.664 308.768C395.737 308.094 389.782 309.143 384.184 310.223C379.735 311.081 375.179 311.965 371.194 311.965C353.401 311.965 337.685 314.717 321.626 320.635C306.845 326.075 302.244 346.294 306.33 362.699C308.046 369.576 315.062 381.386 319.135 386.49C320.957 388.615 322.944 390.594 325.077 392.407C329.265 396.189 334.006 400.467 336.064 406.212C336.764 408.003 337.064 409.925 336.944 411.844C336.825 413.763 336.288 415.633 335.372 417.323C329.163 428.885 306.228 434.554 295.203 437.275L294.936 437.344C291.714 438.139 288.867 438.616 286.35 439.067C280.211 440.128 275.363 440.974 268.766 445.423C257.461 453.012 246.778 460.188 231.838 460.709C220.19 461.122 212.964 463.62 202.968 467.065C201.258 467.656 199.473 468.273 197.592 468.902C194.894 469.855 192.057 470.353 189.197 470.377V470.377ZM107.988 410.509C109.018 410.504 110.046 410.58 111.064 410.738C119.204 412.009 124.841 418.944 129.817 425.052C130.611 426.024 131.38 426.959 132.13 427.861C137.646 434.351 140.906 440.313 144.687 447.215C145.66 448.982 146.664 450.819 147.75 452.739C153.107 462.222 153.26 462.222 161.82 462.61C162.805 462.661 163.892 462.705 165.093 462.781C170.336 463.08 174.314 464.466 178.165 465.8C181.781 467.072 185.2 468.254 189.197 468.254C191.813 468.225 194.406 467.768 196.874 466.9C198.78 466.264 200.528 465.629 202.231 465.063C212.024 461.682 219.757 459 231.73 458.58C246.06 458.078 256.018 451.391 267.546 443.65C274.537 438.972 279.563 438.101 285.975 436.995C288.574 436.544 291.263 436.08 294.415 435.298L294.681 435.234C305.409 432.584 327.727 427.073 333.484 416.338C334.266 414.911 334.722 413.328 334.819 411.704C334.917 410.08 334.654 408.454 334.05 406.943C332.143 401.706 327.835 397.791 323.641 394.009C321.423 392.117 319.357 390.053 317.464 387.837C313.168 382.454 306.069 370.491 304.258 363.233C299.905 345.906 304.989 324.518 320.876 318.664C336.906 312.703 353.889 309.718 370.991 309.855C374.975 309.855 379.456 308.99 383.783 308.158C389.573 307.039 395.73 305.965 400.02 306.689C404.195 307.395 406.743 309.276 409.209 311.094C412.05 313.192 414.732 315.168 419.936 315.168C431.686 315.124 445.87 311.952 458.383 309.149C462.349 308.266 466.168 307.408 469.733 306.689C485.474 303.511 512.641 295.204 514.618 284.176C515.933 276.867 510.805 275.151 504.876 273.168C502.519 272.471 500.241 271.534 498.076 270.371C494.574 268.299 491.918 265.413 489.351 262.623C486.65 259.686 483.86 256.655 480.015 254.481C474.169 251.169 467.642 248.576 460.735 245.837C450.503 241.769 439.929 237.574 431.267 230.747C429.23 229.101 427.282 227.346 425.433 225.491C421.9 222.059 418.564 218.817 413.009 216.554C409.444 215.105 406.197 213.522 403.058 211.991C398.056 209.556 393.335 207.262 387.869 205.711C385.067 204.91 377.937 203.346 375.516 203.594C372.821 203.855 371.156 205.075 369.396 206.359C367.824 207.662 366 208.627 364.039 209.194C362.715 209.527 361.355 209.694 359.991 209.69C356.902 209.69 354.112 208.857 351.418 208.05C348.723 207.243 346.283 206.518 343.557 206.518C342.301 206.515 341.05 206.681 339.839 207.014C338.257 207.446 337.297 208.374 336.306 209.359C334.965 210.681 333.44 212.175 330.434 212.175C330.186 212.175 329.932 212.175 329.659 212.143C324.124 211.711 323.304 209.207 322.548 206.995C322.116 205.692 321.709 204.452 320.349 203.404C317.343 201.045 313.397 200.531 309.546 200.028C305.37 199.482 301.055 198.91 297.916 195.954C294.777 192.999 292.292 186.929 290.131 181.602C289.057 178.977 288.047 176.517 287.056 174.611C285.257 171.197 284.19 167.479 283.154 163.888C281.953 159.725 280.815 155.797 278.654 152.377C270.635 139.665 259.056 130.767 247.859 122.167C236.496 113.434 224.746 104.37 216.548 91.3464C214.642 88.3082 212.818 84.6217 210.892 80.719C205.631 70.079 199.676 58.0216 190.461 57.0173C186.795 56.6296 183.471 57.3796 179.925 58.1868C176.993 58.9632 173.983 59.4067 170.952 59.5089C169.625 59.5153 168.301 59.3875 166.999 59.1275C156.666 57.0809 156.412 53.1147 155.942 45.9133C155.846 44.4959 155.745 42.926 155.554 41.1844C153.692 23.9786 151.836 14.2474 135.371 14.2474C133.77 14.2474 132.009 14.3428 130.147 14.5271C120.933 15.4551 112.887 18.8238 105.109 22.0845C99.6756 24.3599 94.0643 26.7117 88.0526 28.2498L73.8685 40.2564L73.233 39.8878C72.7836 39.6429 72.2763 39.5243 71.765 39.5445C64.9589 39.5445 52.4525 57.3415 46.4408 65.9285C44.9601 68.0387 43.7908 69.704 43.0028 70.7146C40.836 73.3202 38.5009 75.781 36.0124 78.0813C30.9921 82.9182 25.8001 87.9268 26.4039 92.3506C26.747 94.893 28.9458 97.1876 33.0765 99.4249C35.0656 100.499 38.1604 101.014 41.4522 101.561C46.4344 102.393 51.62 103.245 54.359 106.258C56.5832 108.686 56.4815 110.847 56.3798 112.944C56.233 114.402 56.3492 115.875 56.723 117.292C57.6 120.273 59.0997 122.141 60.9935 124.506C61.6925 125.377 62.4297 126.305 63.1986 127.353C71.282 138.445 69.3501 151.996 67.4882 165.096C67.0687 168.045 66.6303 171.096 66.3379 173.994C65.6389 180.948 64.5204 191.276 62.8872 200.626C61.9721 205.876 59.392 210.421 56.9073 214.819C54.753 218.633 52.7194 222.205 51.6582 226.215C48.7603 237.199 46.8666 241.356 40.4164 250.966C39.5648 252.237 38.6561 253.559 37.7155 254.913C33.7882 260.633 29.3398 267.072 26.9122 273.079C23.9763 280.369 25.3807 284.564 27.1537 289.878C27.9798 292.171 28.659 294.515 29.1873 296.895C30.4583 302.838 30.5536 309.359 30.6743 315.67C30.7506 319.84 30.8396 324.149 31.2526 328.122C31.5132 330.664 31.7229 333.207 31.9262 335.641C33.1972 351.5 34.3538 365.197 49.8597 374C52.0267 375.227 54.2573 376.333 56.418 377.407C62.9698 380.655 69.1595 383.725 73.843 389.979C75.6271 392.483 77.1717 395.15 78.4567 397.943C80.5411 402.17 82.5111 406.155 87.0358 409.085C89.6284 410.865 92.6991 411.818 95.8436 411.819C97.7814 411.768 99.7116 411.556 101.614 411.183C103.717 410.785 105.848 410.559 107.988 410.509V410.509Z" fill="url(#paint1_linear_7724_14661)"/>
<path d="M192.139 458.892C189.902 458.892 187.564 458.79 185.149 458.574C172.363 457.449 171.257 457.029 161.496 449.574C153.012 443.103 150.756 440.383 144.802 431.586C143.41 429.533 141.859 426.978 140.067 424.016C133.426 413.077 124.333 398.09 114.813 395.007C112.906 394.371 110.657 394.842 108.325 395.433C105.992 396.024 103.298 396.558 100.997 395.916C99.3007 395.439 97.9534 394.085 96.6507 392.776C95.5958 391.714 94.6044 390.717 93.5431 390.272C91.4206 389.382 89.5014 388.638 87.703 387.939C81.793 385.651 77.1221 383.846 70.907 378.882C63.8722 373.263 59.7034 368.547 54.0285 361.269C46.9809 352.199 45.0745 348.69 44.0386 337.574C43.3269 330.016 41.7318 322.116 40.1876 314.469L39.5139 311.126C38.243 304.694 39.0055 299.958 39.8253 294.95C40.3419 292.145 40.6836 289.312 40.8485 286.465C40.9461 283.628 40.8718 280.788 40.626 277.96C40.2765 273.041 40.0287 269.488 43.0282 262.706C44.7631 258.778 46.6759 254.754 48.5315 250.858C50.5524 246.612 52.6431 242.214 54.467 238.019C61.3104 221.944 66.9645 205.389 71.3837 188.486C74.3959 176.74 74.0845 166.5 73.754 155.657C73.5825 149.905 73.3982 143.968 73.754 137.695C73.8176 136.551 73.7159 134.593 73.6142 132.521C73.4363 128.962 73.2584 125.288 73.735 123.623C74.8217 119.911 76.4167 118.538 78.1135 117.127C79.3516 116.152 80.4506 115.012 81.3799 113.739C85.358 108.209 86.7688 104.465 85.7012 102.298C84.856 100.569 82.2505 99.6284 77.961 99.4886H77.7385C75.7939 99.4886 73.7604 100.296 71.7967 101.084C69.6424 101.942 67.4055 102.813 65.2131 102.698C62.7362 102.659 60.359 101.716 58.5277 100.048C57.6635 99.235 56.6178 98.6401 55.4774 98.3127C54.0888 98.0006 52.6845 97.7629 51.2705 97.6008C45.0554 96.7618 36.5462 95.6114 37.2897 86.5921C37.76 80.8717 48.4362 70.1745 56.9899 61.5811C60.0783 58.4857 62.7474 55.8161 64.1391 54.1381C77.4081 38.1463 89.978 30.3729 102.554 30.3729C103.133 30.3729 103.711 30.3729 104.296 30.4237L115.734 24.7033C116.433 22.485 129.08 22.3833 129.238 22.3833C131.78 22.3833 133.63 22.5994 134.697 23.0189C142.565 26.127 142.654 32.0509 142.755 38.909C142.69 41.4833 142.394 44.0465 141.872 46.5681C141.128 50.8521 140.36 55.2822 141.605 58.7781C143.359 63.704 146.638 64.8608 150.438 66.1956C152.815 67.0346 155.268 67.899 157.518 69.7359C159.244 71.2372 160.61 73.1076 161.515 75.2085C162.748 77.6555 163.453 78.8378 165.874 78.8378C166.675 78.8217 167.471 78.7215 168.251 78.539C170.736 77.9988 172.604 75.3102 174.415 72.7042C176.226 70.0982 178.063 67.4668 180.681 66.7422C181.497 66.516 182.339 66.4006 183.185 66.399C191.478 66.399 197.623 77.4585 202.561 86.3506C203.888 88.9092 205.374 91.3823 207.01 93.7554C208.115 95.2046 209.189 96.6347 210.251 98.0457C214.063 103.099 217.616 107.872 222.071 112.493C225.312 115.862 228.197 119.961 230.967 123.934C234.355 128.745 237.856 133.722 241.917 137.212C243.543 138.473 245.355 139.477 247.287 140.186C249.193 141.013 251.214 141.864 252.841 143.314C253.902 144.261 254.9 146.117 255.968 148.074C256.632 149.406 257.404 150.681 258.274 151.888C259.761 153.731 261.179 155.276 262.545 156.769C266.135 160.691 269.237 164.085 271.149 170.301C272.166 173.594 272.98 176.689 273.768 179.689C275.178 185.06 276.506 190.132 278.82 195.675C279.754 197.978 280.531 200.341 281.146 202.749C282.569 207.986 283.052 209.741 291.568 211.012C293.423 211.285 295.031 211.482 296.448 211.647C304.474 212.639 306.896 212.919 312.52 222.116C313.333 223.476 313.853 224.992 314.045 226.565C314.388 228.586 314.579 229.692 318.315 231.014C319.133 231.295 319.993 231.435 320.857 231.428C323.533 231.428 326.24 230.194 328.858 229.012L330.307 228.377C333.148 227.144 335.391 225.98 337.335 224.957C342.635 222.192 346.321 220.279 355.199 220.59L357.417 220.667C365.348 220.921 374.327 221.207 381.165 224.976C382.671 225.809 384.126 227.315 385.537 228.79C386.948 230.264 388.327 231.688 389.515 232.184C390.777 232.657 392.121 232.873 393.468 232.819C394.027 232.819 394.593 232.819 395.165 232.788C395.737 232.756 396.353 232.75 396.951 232.75C398.799 232.676 400.641 233.002 402.352 233.703C405.879 235.286 408.872 238.095 411.77 240.815C415.017 243.866 418.379 247.019 422.408 248.316C425.706 249.377 428.947 249.504 432.379 249.65C437.075 249.841 441.911 250.038 446.805 252.828C448.66 253.896 450.3 255.587 451.888 257.22C453.661 259.038 455.485 260.92 457.557 261.873C459.688 262.783 461.94 263.379 464.242 263.64C466.292 263.896 468.307 264.373 470.254 265.064C476.73 267.555 479.971 270.899 479.894 274.998C479.742 283.153 465.793 291.702 456.413 294.912C454.081 295.703 451.631 296.094 449.169 296.069C444.72 296.069 440.272 294.95 436.039 293.869C434.209 293.405 432.398 292.948 430.606 292.598C429.418 292.357 428.261 292.039 427.111 291.721C424.943 291.009 422.686 290.6 420.406 290.507C419.607 290.506 418.809 290.578 418.023 290.723C416.117 291.066 414.357 292.141 412.507 293.266C410.22 294.67 407.855 296.113 405.104 296.113C403.089 296.113 401.202 294.753 399.2 293.335C397.542 292.153 395.826 290.933 394.32 290.723C391.371 290.31 388.676 291.016 385.918 291.823C384.647 292.191 383.377 292.579 381.928 292.859C377.273 293.878 372.678 295.151 368.163 296.672C364.35 297.874 360.423 299.113 356.476 300.035C350.865 301.357 344.777 301.776 338.886 302.183C326.208 303.054 314.235 303.88 305.783 312.721C290.373 328.847 298.793 355.993 301.729 363.932C302.593 366.252 303.375 368.451 304.131 370.6C306.006 375.862 307.773 380.839 310.225 386.115C313.257 392.63 315.36 395.166 318.849 399.367C319.732 400.435 320.698 401.598 321.779 402.946C324.873 406.81 325.903 410.077 324.956 412.937C323.819 416.319 319.872 418.817 312.958 420.565C309.414 421.421 305.824 422.077 302.206 422.529C297.389 423.221 292.839 423.87 287.589 425.872L277.949 429.533C263.968 434.84 250.725 439.855 237.468 445.461C234.787 446.593 232.251 447.705 229.843 448.773C216.936 454.43 206.749 458.892 192.139 458.892ZM112.703 392.56C113.648 392.553 114.587 392.697 115.487 392.986C125.75 396.316 135.079 411.692 141.891 422.916C143.677 425.853 145.215 428.389 146.575 430.397C152.37 438.959 154.563 441.603 162.799 447.889C172.274 455.122 172.909 455.364 185.352 456.464C187.678 456.667 189.953 456.769 192.126 456.769C206.291 456.769 216.275 452.383 228.985 446.828C231.425 445.754 233.967 444.641 236.661 443.504C249.956 437.885 263.199 432.864 277.218 427.55L286.852 423.889C292.33 421.798 297.02 421.13 301.932 420.425C305.475 419.985 308.991 419.349 312.462 418.518C318.557 416.98 322.096 414.876 322.967 412.27C323.672 410.179 322.726 407.49 320.158 404.28C319.091 402.939 318.131 401.789 317.254 400.734C313.784 396.545 311.484 393.78 308.357 387.017C305.86 381.653 304.08 376.632 302.187 371.312C301.43 369.182 300.655 366.983 299.797 364.676C295.883 354.131 288.485 327.811 304.303 311.285C313.32 301.846 326.272 300.956 338.797 300.092C344.605 299.692 350.604 299.278 356.044 298.001C359.914 297.092 363.81 295.865 367.578 294.677C372.166 293.14 376.833 291.852 381.559 290.818C382.881 290.558 384.145 290.183 385.372 289.827C387.665 289.042 390.061 288.599 392.483 288.511C393.212 288.511 393.941 288.562 394.663 288.664C396.684 288.95 398.616 290.316 400.484 291.645C402.13 292.814 403.827 294.022 405.097 294.035C407.309 294.035 409.317 292.802 411.452 291.492C413.359 290.31 415.399 289.083 417.706 288.664C418.616 288.498 419.539 288.415 420.464 288.416C422.934 288.503 425.38 288.931 427.734 289.687C428.839 289.999 429.945 290.323 431.083 290.532C432.906 290.901 434.756 291.371 436.618 291.842C440.755 292.891 445.025 293.977 449.226 293.977C451.455 293.999 453.672 293.647 455.784 292.935C464.681 289.878 477.702 281.729 477.823 274.992C477.886 271.877 475.096 269.214 469.561 267.079C467.752 266.443 465.879 266.004 463.975 265.769C461.482 265.484 459.042 264.842 456.731 263.862C454.31 262.737 452.34 260.684 450.44 258.778C448.883 257.176 447.421 255.669 445.82 254.748C441.409 252.205 437.018 252.021 432.366 251.83C428.941 251.697 425.408 251.551 421.83 250.4C417.381 248.958 413.81 245.64 410.391 242.43C407.5 239.709 404.761 237.142 401.564 235.705C400.122 235.135 398.576 234.875 397.027 234.942C396.455 234.942 395.877 234.942 395.305 234.974C394.733 235.006 394.123 235.006 393.544 235.006C391.915 235.07 390.29 234.807 388.765 234.231C387.177 233.563 385.677 232 384.082 230.347C382.811 229 381.445 227.608 380.218 226.934C373.825 223.406 365.113 223.12 357.43 222.885L355.205 222.809C346.868 222.504 343.601 224.22 338.39 226.94C336.401 227.976 334.139 229.158 331.235 230.423L329.811 231.059C327.117 232.279 324.092 233.665 320.914 233.665C319.833 233.666 318.76 233.487 317.737 233.137C313.149 231.542 312.513 229.692 312.062 227.061C311.916 225.757 311.496 224.498 310.829 223.368C305.745 215.061 304.106 214.857 296.302 213.898C294.872 213.72 293.245 213.516 291.371 213.262C281.838 211.845 280.821 209.378 279.207 203.442C278.61 201.09 277.848 198.783 276.926 196.539C274.562 190.857 273.208 185.734 271.785 180.268C271.003 177.293 270.19 174.217 269.192 170.975C267.413 165.217 264.604 162.14 261.045 158.263C259.66 156.744 258.224 155.18 256.692 153.286C255.732 151.973 254.882 150.583 254.15 149.129C253.229 147.413 252.244 145.64 251.481 144.947C250.121 143.727 248.367 142.983 246.505 142.189C244.497 141.324 242.413 140.441 240.589 138.871C236.331 135.203 232.747 130.118 229.29 125.199C226.544 121.303 223.71 117.273 220.577 114.025C216.033 109.315 212.418 104.491 208.592 99.4059C207.531 97.9949 206.463 96.5711 205.357 95.1283C203.665 92.661 202.133 90.0879 200.769 87.4248C196.321 79.467 190.29 68.5664 183.249 68.5664C182.593 68.5681 181.942 68.6579 181.31 68.8333C179.404 69.3545 177.872 71.5919 176.226 73.9627C174.187 76.8992 172.077 79.9374 168.772 80.662C167.844 80.8756 166.896 80.9906 165.944 81.0052C162.1 81.0052 160.86 78.5644 159.691 76.2064C158.865 74.5665 158.013 72.8694 156.247 71.4266C154.283 69.8249 152.008 69.024 149.803 68.2486C145.85 66.8566 141.77 65.4201 139.673 59.5281C138.243 55.5174 139.038 50.8076 139.845 46.2503C140.344 43.8567 140.629 41.4232 140.696 38.979C140.601 32.3877 140.531 27.6207 133.992 25.0338C133.528 24.8494 132.308 24.5444 129.308 24.5444C125.903 24.5669 122.505 24.8431 119.141 25.3706L117.781 26.1079L104.766 32.6102H104.48C103.844 32.5657 103.209 32.5466 102.573 32.5466C90.6644 32.5466 78.6346 40.0658 65.7914 55.5428C64.3361 57.2971 61.6416 59.9921 58.515 63.132C51.0671 70.594 39.8126 81.876 39.4059 86.821C38.8657 93.3105 44.3309 94.5753 51.5374 95.5478C53.0332 95.719 54.5184 95.9736 55.9858 96.3105C57.422 96.716 58.7446 97.4492 59.8496 98.4525C61.3303 99.8432 63.2835 100.62 65.3148 100.626H65.6389C67.2848 100.626 69.0832 99.9081 70.9833 99.1454C73.1376 98.2873 75.3618 97.3974 77.7131 97.3974H78.0055C83.2101 97.5627 86.3431 98.872 87.5823 101.389C89.4887 105.311 85.9363 111.038 83.083 115.01C82.0492 116.423 80.831 117.69 79.4607 118.779C77.8275 120.158 76.6519 121.156 75.7495 124.245C75.3745 125.548 75.5588 129.33 75.7113 132.419C75.813 134.549 75.9147 136.563 75.8448 137.822C75.5143 143.994 75.6923 149.898 75.8448 155.619C76.1816 166.621 76.4803 177.007 73.4045 189.039C68.9638 206.054 63.2734 222.719 56.3798 238.896C54.5432 243.129 52.4461 247.54 50.4189 251.805C48.5696 255.682 46.6632 259.693 44.9346 263.596C42.1512 269.894 42.3927 273.053 42.7168 277.833C42.9619 280.742 43.032 283.662 42.9265 286.579C42.7621 289.502 42.4183 292.412 41.897 295.293C41.109 300.105 40.3591 304.656 41.5729 310.713L42.2084 314.05C43.7654 321.747 45.3858 329.705 46.0976 337.377C47.089 348.004 48.7984 351.144 55.6744 359.96C61.2476 367.104 65.3338 371.737 72.1971 377.223C78.1516 381.983 82.689 383.738 88.4338 385.962C90.2513 386.661 92.1895 387.411 94.3311 388.314C95.7737 388.95 96.9621 390.119 98.1441 391.276C99.3261 392.433 100.4 393.545 101.557 393.869C103.406 394.39 105.567 393.933 107.791 393.373C109.392 392.897 111.046 392.623 112.716 392.56H112.703Z" fill="url(#paint2_linear_7724_14661)"/>
<path d="M201.462 443.027C200.551 443.024 199.641 442.973 198.736 442.874C190.614 442.035 184.183 438.349 176.443 432.705C160.867 421.264 156.399 407.56 151.226 391.664C150.591 389.706 149.932 387.702 149.25 385.651C148.78 384.259 148.31 382.587 147.801 380.776C145.895 373.975 143.251 364.657 138.059 362.013C136.484 361.156 134.729 360.686 132.937 360.64C127.307 360.64 123.481 366.169 120.1 371.051C119.522 371.884 118.969 372.684 118.423 373.428C114.19 379.212 108.89 382.136 102.58 382.136C95.2844 382.136 86.9532 378.322 77.1095 370.473C65.1813 360.938 58.2482 348.563 54.6322 330.277C53.0117 322.09 51.1752 312.81 51.4167 303.435C51.4993 300.156 51.3404 297.079 51.1688 293.863C50.7934 288.908 50.8082 283.93 51.2133 278.977C52.4207 266.85 57.7398 255.968 62.8809 245.436C65.5245 240.027 68.2571 234.434 70.3733 228.783C72.1844 223.927 74.7645 219.294 77.262 214.8C79.1239 211.463 81.0749 208.012 82.6064 204.541C86.5846 195.687 87.6903 186.929 88.6308 177.992C88.9269 173.988 88.895 169.966 88.5355 165.967C88.2178 160.945 87.9 155.746 88.9041 150.331C89.8192 145.392 91.8909 140.994 93.8927 136.741C95.6149 133.087 97.2481 129.629 98.214 125.834L106.17 108.889C105.935 108.311 106.119 107.376 106.685 104.713C107.251 102.05 108.051 98.3 107.753 96.5267C106.685 90.1325 106.316 89.9609 100.127 87.1006L99.879 86.9862C96.9346 85.6173 93.7205 84.9265 90.4738 84.965C87.5398 85.0457 84.6174 85.3667 81.7358 85.9248C78.6466 86.5194 75.5136 86.8574 72.3687 86.9354C71.3817 86.9367 70.3953 86.8858 69.4137 86.7828C62.1183 86.0201 57.6 83.2235 57.0217 79.1111C56.4307 74.8589 60.3453 70.3842 67.0052 67.7147C69.2167 66.8248 71.085 66.2655 72.9025 65.7252C76.6646 64.6002 79.6323 63.7104 83.7058 60.4561C85.5171 58.9689 87.2341 57.3704 88.8469 55.67C91.1855 53.2928 93.6131 50.833 96.835 48.9325C100.362 46.8351 109.392 42.0108 117.52 42.0108C119.8 41.9659 122.061 42.4261 124.142 43.3583C131.062 46.5935 131.081 51.6593 131.132 57.0174C131.031 59.7931 131.287 62.5702 131.895 65.2803C134.043 73.6258 151.277 86.4205 163.332 86.4205C164.889 86.456 166.436 86.1682 167.876 85.5752C170.177 84.5773 171.759 82.2637 173.291 80.0264C175.267 77.128 177.313 74.1343 180.955 74.1343C182.573 74.1975 184.15 74.6698 185.536 75.5072C189.426 77.6428 191.891 84.5074 194.039 90.5647C194.759 92.7322 195.608 94.8547 196.581 96.9207C201.926 107.09 208.655 115.074 215.722 123.553C218.855 127.303 222.077 131.18 225.254 135.254C228.756 139.837 230.885 145.239 232.95 150.464C234.357 154.328 236.057 158.078 238.034 161.683C240.525 165.941 244.071 169.126 247.503 172.208C251.487 175.793 255.256 179.2 257.499 184.088C260.225 190.075 260.276 195.904 260.327 201.548C260.41 210.821 260.48 218.83 273.119 224.728C276.003 225.989 279.01 226.946 282.092 227.582C287.647 228.904 292.896 230.156 297.471 236.201C298.888 238.076 299.27 240.059 299.607 241.807C300.09 244.305 300.503 246.46 303.744 248.239C304.744 248.674 305.833 248.865 306.921 248.799C309.87 248.799 313.556 247.966 315.532 247.527L315.761 247.477C318.672 246.71 321.508 245.678 324.232 244.394C328.68 242.487 333.256 240.498 338.136 240.498C339.337 240.497 340.534 240.622 341.708 240.873C344.078 241.381 345.965 242.601 347.783 243.784C349.6 244.966 351.342 246.091 353.242 246.18C355.116 246.18 357.182 244.972 359.177 243.803C360.524 242.946 361.955 242.231 363.448 241.667C366.662 240.552 370.03 239.945 373.431 239.868C378.407 239.868 382.964 241.508 387.793 245.036C391.498 247.737 401.736 257.303 402.009 264.18C402.46 275.621 382.309 276.816 366.11 277.77C360.346 278.106 355.358 278.405 352.403 279.117C348.998 279.847 345.551 280.365 342.083 280.668C336.414 281.303 330.555 281.939 325.986 284.043C323.304 285.282 321.766 287.418 320.145 289.681C318.773 291.588 317.362 293.558 315.22 294.912C313.079 296.266 310.715 296.272 308.586 296.31C306.756 296.31 305.027 296.374 303.794 297.187C299.066 300.308 290.335 313.471 288.327 318.798C285.321 326.717 284.774 341.044 287.176 348.862C289.579 356.68 293.976 364.352 298.221 371.744C302.466 379.136 306.953 386.998 309.298 394.842C310.403 398.554 310.137 401.833 308.497 404.522C304.563 411.05 293.531 413.242 283.796 415.175C279.5 416.026 275.445 416.834 272.541 417.92C267.788 419.694 263.562 421.734 259.088 423.946C256.362 425.281 253.546 426.66 250.56 427.982C245.749 430.124 240.881 430.486 236.172 430.842C232.162 431.141 228.375 431.427 224.733 432.749C220.857 434.167 218.099 436.042 215.43 437.834C211.452 440.491 207.759 443.027 201.462 443.027ZM132.931 358.491C135.056 358.538 137.14 359.087 139.012 360.093C145.037 363.163 147.699 372.595 149.816 380.178C150.318 381.945 150.782 383.585 151.239 384.952C151.925 387.005 152.58 389.013 153.222 390.984C158.49 407.166 162.646 419.948 177.669 430.963C185.13 436.429 191.288 439.976 198.933 440.77C206.133 441.514 209.825 439.029 214.184 436.067C217.194 433.869 220.478 432.072 223.952 430.722C227.841 429.298 231.952 428.986 235.931 428.688C240.455 428.351 245.139 428.001 249.613 426.012C252.561 424.696 255.364 423.329 258.071 422.007C262.596 419.795 266.866 417.711 271.715 415.893C274.784 414.755 278.921 413.929 283.3 413.058C292.603 411.215 303.146 409.117 306.597 403.391C307.931 401.185 308.122 398.573 307.175 395.42C304.907 387.793 300.534 380.166 296.302 372.767C291.993 365.248 287.539 357.474 285.067 349.428C282.525 341.247 283.116 326.26 286.255 317.991C288.225 312.785 297.007 299.037 302.542 295.382C304.29 294.232 306.413 294.194 308.465 294.155C310.518 294.117 312.418 294.086 314 293.081C315.792 291.95 317.025 290.227 318.334 288.41C320.05 286.02 321.823 283.554 325.007 282.054C329.894 279.797 335.931 279.136 341.765 278.5C345.144 278.206 348.501 277.702 351.818 276.994C354.964 276.231 360.035 275.933 365.907 275.589C380.364 274.744 400.173 273.581 399.798 264.206C399.594 258.886 391.136 250.114 386.452 246.695C381.947 243.402 377.905 241.934 373.342 241.934C370.163 242.012 367.016 242.585 364.013 243.631C362.667 244.15 361.377 244.803 360.162 245.582C357.919 246.892 355.599 248.246 353.299 248.246H353.045C350.566 248.131 348.514 246.803 346.531 245.513C344.866 244.432 343.15 243.32 341.161 242.894C340.133 242.677 339.085 242.568 338.035 242.57C333.586 242.57 329.214 244.477 324.975 246.288C322.127 247.614 319.164 248.678 316.123 249.466L315.9 249.517C313.841 249.987 310.009 250.852 306.819 250.852C305.379 250.929 303.942 250.647 302.638 250.032C298.52 247.775 297.942 244.782 297.433 242.137C297.115 240.472 296.798 238.89 295.692 237.415C291.568 231.974 286.909 230.862 281.514 229.578C278.289 228.914 275.142 227.911 272.128 226.584C258.274 220.12 258.198 211.075 258.116 201.491C258.065 196.075 258.02 190.475 255.472 184.901C253.419 180.395 249.81 177.153 245.99 173.721C242.444 170.543 238.771 167.231 236.109 162.687C234.074 158.989 232.326 155.141 230.879 151.176C228.87 146.091 226.792 140.822 223.469 136.474C220.374 132.432 217.152 128.574 214.032 124.849C206.857 116.275 200.089 108.184 194.643 97.8424C193.622 95.6931 192.739 93.481 191.999 91.2194C190.061 85.7977 187.653 79.0539 184.469 77.306C183.393 76.6464 182.17 76.2642 180.91 76.1937C178.368 76.1937 176.818 78.4945 175 81.1641C173.38 83.5349 171.537 86.2489 168.645 87.4629C166.937 88.1672 165.103 88.5133 163.256 88.4799C151.112 88.4799 132.327 75.736 129.76 65.7443C129.127 62.8784 128.858 59.9442 128.959 57.0111C128.959 51.7419 128.927 47.941 123.24 45.2715C121.44 44.4752 119.487 44.0866 117.52 44.1337C109.894 44.1337 101.252 48.7546 97.8899 50.7377C94.9095 52.5047 92.6853 54.7547 90.334 57.1446C88.6582 58.9031 86.8777 60.5587 85.0022 62.1023C80.5538 65.6108 77.281 66.6024 73.4554 67.7401C71.6951 68.2677 69.8649 68.8143 67.736 69.6469C62.1056 71.9097 58.6231 75.5771 59.0679 78.7806C59.4937 81.7997 63.421 83.9925 69.5789 84.6345C70.4869 84.7269 71.3989 84.7736 72.3115 84.7743C75.3414 84.6939 78.3596 84.3644 81.3354 83.7891C84.3305 83.2134 87.3677 82.8839 90.4166 82.804C93.9679 82.7734 97.4818 83.531 100.705 85.0222L100.959 85.1366C107.397 88.0985 108.585 88.6324 109.812 96.1389C110.174 98.3127 109.373 102.088 108.725 105.12C108.477 106.277 108.178 107.694 108.159 108.165L108.661 108.451L100.165 126.508C99.2181 130.322 97.4705 134.021 95.7801 137.612C93.8355 141.744 91.821 146.015 90.9504 150.687C89.9908 155.841 90.3149 160.901 90.6199 165.795C90.985 169.909 91.0127 174.046 90.7025 178.164C89.7811 187.285 88.6118 196.234 84.5065 205.374C82.9115 208.927 80.9605 212.423 79.0795 215.798C76.6201 220.209 74.0845 224.773 72.3242 229.476C70.1763 235.197 67.4183 240.866 64.7556 246.32C59.6717 256.68 54.4607 267.39 53.285 279.136C52.904 283.983 52.904 288.851 53.285 293.698C53.4502 296.838 53.6218 300.054 53.5328 303.435C53.2977 312.582 55.1089 321.734 56.7103 329.819C60.2245 347.572 66.9226 359.585 78.4313 368.763C87.7539 376.193 95.8818 379.962 102.58 379.962C108.223 379.962 112.843 377.42 116.707 372.125C117.241 371.394 117.787 370.606 118.353 369.786C121.841 364.758 126.188 358.485 132.931 358.485V358.491ZM107.003 107.523L108.172 108.158C108.112 107.956 107.987 107.78 107.817 107.655C107.648 107.53 107.442 107.463 107.232 107.465C107.153 107.472 107.076 107.489 107.003 107.516V107.523Z" fill="url(#paint3_linear_7724_14661)"/>
<path d="M204.97 415.581C198.246 415.581 192.813 413.916 187.888 410.331C181.209 405.488 180.109 400.162 178.953 394.537C178.317 391.359 177.618 388.072 175.852 384.71C174.854 382.803 173.125 381.284 171.461 379.803C169.249 377.846 166.968 375.824 166.167 372.812C165.423 370.034 166.3 366.92 167.146 363.913C167.927 361.116 168.741 358.231 168.289 355.65C167.864 353.235 167.419 350.947 166.98 348.703C165.658 341.896 164.438 335.476 164.025 327.092C163.53 316.287 162.805 311.043 151.983 309.829C151.139 309.734 150.29 309.685 149.441 309.683C136.534 309.683 129.48 321.359 122.013 333.722C116.294 343.148 110.422 352.904 101.595 357.239C98.6891 358.777 95.4693 359.627 92.1834 359.724C77.8976 359.724 72.5595 340.173 69.0325 327.239C68.7339 326.158 68.4542 325.122 68.181 324.15C67.0816 320.247 65.728 316.389 64.2918 312.302C59.9006 299.8 55.395 286.878 58.9029 273.422C61.0889 265.159 66.0521 256.578 69.5981 250.852C74.3389 243.224 77.4718 235.705 80.7827 227.773C81.4182 226.324 82.0028 224.849 82.6447 223.355C86.4576 214.317 88.7072 204.707 90.8616 195.42C92.8125 187.024 94.827 178.348 98.0044 170.263C99.9109 165.452 100.801 160.373 101.684 155.46C102.351 151.142 103.326 146.877 104.601 142.697C106.005 138.432 108.001 134.669 109.933 131.021C111.864 127.373 113.892 123.572 115.245 119.332C117.082 113.612 122.433 101.669 129.518 97.7216C131.418 96.5885 133.579 95.9707 135.791 95.9292C138.587 95.9292 140.97 96.9907 143.493 98.1157C145.869 99.1771 148.335 100.27 151.373 100.556C155.567 100.957 160.092 99.3678 164.496 97.8297C169.02 96.2597 173.716 94.6516 177.962 95.1728C183.446 95.8593 186.363 99.7556 189.445 103.874C190.882 105.908 192.483 107.821 194.23 109.595C207.461 122.339 210.479 133.627 214.655 149.25C215.078 150.924 215.544 152.653 216.053 154.437C219.834 168.255 227.053 177.852 235.41 188.963C237.005 191.092 238.638 193.266 240.29 195.516L240.43 195.783L244.586 207.224C247.128 209.518 247.516 211.857 247.859 214.126C248.014 215.492 248.347 216.832 248.85 218.112C251.36 224.016 254.042 225.275 257.442 226.877C260.077 227.991 262.498 229.554 264.598 231.497C266.453 233.264 267.101 235.584 267.731 237.854C268.29 239.856 268.817 241.75 270.171 243.027C272.077 244.839 273.78 245.049 275.922 245.322C277.356 245.46 278.77 245.752 280.142 246.193C286.122 248.258 288.403 250.864 291.047 253.877C292.985 256.222 295.212 258.313 297.675 260.1C299.791 261.612 301.805 262.356 303.826 262.356C306.902 262.356 309.819 260.684 313.193 258.752C315.634 257.268 318.196 255.992 320.851 254.939C324.511 253.585 330.212 252.136 335.238 252.136C340.678 252.136 344.237 253.794 345.8 257.068C347.039 259.655 347.211 261.949 346.315 263.888C344.523 267.797 338.981 269.284 334.533 270.485C333.262 270.829 332.048 271.153 331.146 271.483C316.676 276.829 305.892 285.467 294.472 294.594C291.892 296.66 289.267 298.757 286.554 300.855C271.938 312.175 268.086 323.247 271.302 344.743C272.706 354.182 275.75 363.246 279.69 369.627C280.841 371.375 282.082 373.062 283.408 374.68C287.59 380.007 292.794 386.636 291.472 392.916C289.223 403.645 253.102 413.497 244.001 413.999C241.676 414.132 239.242 414.189 236.102 414.189C234.698 414.189 233.3 414.189 231.902 414.189C230.504 414.189 229.099 414.189 227.688 414.189C222.804 414.131 217.921 414.401 213.072 414.997C210.388 415.373 207.681 415.568 204.97 415.581ZM149.447 307.586C150.373 307.586 151.298 307.639 152.218 307.745C164.693 309.137 165.639 316.008 166.148 327.016C166.529 335.241 167.762 341.591 169.065 348.315C169.51 350.578 169.954 352.879 170.38 355.307C170.92 358.364 170.037 361.491 169.192 364.511C168.385 367.371 167.629 370.072 168.22 372.29C168.855 374.661 170.8 376.39 172.865 378.221C174.676 379.822 176.557 381.488 177.733 383.731C179.639 387.361 180.345 390.793 181.031 394.111C182.156 399.558 183.122 404.28 189.133 408.622C193.684 411.927 198.717 413.465 204.97 413.465C207.579 413.437 210.184 413.237 212.767 412.867C217.71 412.247 222.688 411.96 227.669 412.009C229.087 412.009 230.491 412.009 231.895 412.009C233.3 412.009 234.685 412.009 236.083 412.009C239.178 412.009 241.58 411.958 243.862 411.831C254.665 411.196 287.615 400.823 289.375 392.433C290.494 387.119 285.626 380.922 281.718 375.939C280.339 374.259 279.052 372.506 277.86 370.689C273.793 364.072 270.628 354.716 269.186 345.004C266.288 325.561 267.997 312.493 285.257 299.126C287.958 297.035 290.57 294.944 293.144 292.884C304.703 283.642 315.621 274.909 330.409 269.437C331.4 269.074 332.652 268.738 333.98 268.382C338.003 267.301 343.004 265.954 344.383 262.954C345.019 261.593 344.847 259.947 343.887 257.939C342.705 255.466 339.795 254.208 335.238 254.208C330.491 254.208 324.918 255.65 321.588 256.884C319.044 257.893 316.589 259.113 314.248 260.532C310.759 262.528 307.468 264.415 303.826 264.415C301.348 264.415 298.933 263.545 296.442 261.759C293.846 259.874 291.497 257.671 289.452 255.199C286.91 252.294 284.895 250 279.449 248.119C278.21 247.723 276.931 247.465 275.636 247.349C273.405 247.063 271.099 246.777 268.684 244.489C266.904 242.805 266.269 240.536 265.659 238.343C265.081 236.29 264.54 234.351 263.117 232.991C261.184 231.208 258.954 229.777 256.527 228.764C253.019 227.112 249.708 225.555 246.887 218.906C246.311 217.463 245.929 215.95 245.749 214.406C245.412 212.2 245.145 210.453 242.978 208.622L242.762 208.438L238.473 196.628C236.859 194.429 235.264 192.306 233.7 190.221C225.21 178.933 217.877 169.189 214 154.977C213.511 153.185 213.047 151.456 212.602 149.778C208.363 133.919 205.561 123.438 192.762 111.107C190.925 109.259 189.246 107.26 187.742 105.133C184.812 101.224 182.283 97.8424 177.695 97.2703C173.882 96.7873 169.681 98.2619 165.195 99.8128C160.581 101.421 155.77 103.086 151.176 102.648C147.789 102.33 145.043 101.109 142.628 100.029C140.214 98.9483 138.136 98.0267 135.791 98.0267C133.943 98.0715 132.139 98.5949 130.554 99.5458C124.517 102.908 119.3 113.586 117.266 119.949C115.855 124.366 113.796 128.212 111.814 131.987C109.907 135.553 107.963 139.239 106.615 143.326C105.376 147.432 104.429 151.621 103.781 155.86C102.885 160.875 101.957 166.03 99.9681 171.064C96.8479 179.009 94.8842 187.59 92.9205 195.923C90.7408 205.304 88.4721 214.991 84.5829 224.207C83.9474 225.701 83.3119 227.175 82.7337 228.618C79.391 236.646 76.2136 244.21 71.4093 252.015C67.9395 257.621 63.078 265.998 60.9682 274.007C57.5874 286.833 62.0168 299.431 66.3063 311.647C67.6853 315.582 69.1152 319.65 70.2273 323.616C70.5069 324.601 70.7928 325.643 71.0852 326.73C74.4469 339.036 79.5244 357.64 92.1897 357.64C95.1485 357.543 98.046 356.772 100.661 355.383C108.922 351.296 114.642 341.813 120.202 332.648C127.644 320.323 135.314 307.586 149.447 307.586Z" fill="url(#paint4_linear_7724_14661)"/>
<path d="M237.811 391.733C235.406 391.714 233.011 391.4 230.681 390.799C226.665 389.782 222.623 389.146 218.715 388.53C204.563 386.293 191.192 384.189 187.652 364.218C186.839 359.667 187.354 355.084 187.849 350.654C188.44 345.417 188.993 340.485 187.5 335.673C186.351 332.199 184.861 328.848 183.051 325.669C180.764 321.385 178.603 317.329 177.84 311.101C175.89 295.172 168.575 293.304 163.224 293.304C157.035 293.304 149.396 296.183 142.101 299.138C134.97 302.018 124.942 307.281 120.164 312.639C116.821 316.382 115.429 321.188 113.955 326.272C112.538 331.135 111.082 336.162 107.765 340.256C104.632 344.146 101.48 346.11 98.4045 346.11C87.347 346.11 81.5132 320.609 81.1637 310.916C80.9413 304.802 81.6403 298.738 82.3203 292.871C82.6825 289.693 83.0574 286.439 83.2862 283.185C83.9789 273.428 88.44 267.244 93.1553 260.684C95.3092 257.794 97.3096 254.791 99.148 251.69C104.956 241.521 109.881 234.872 118.67 225.237C125.807 217.406 127.434 208.463 123.487 198.649C122.194 195.477 120.47 192.498 118.365 189.795C115.455 185.81 113.154 182.664 114.088 173.759C114.343 171.363 114.52 168.877 114.724 166.354C115.359 157.799 115.995 148.951 119.509 141.515C120.639 139.368 122.03 137.369 123.652 135.565C125.444 133.398 127.135 131.351 128.006 128.872C128.641 127.118 128.527 124.951 128.438 122.847C128.342 120.54 128.241 118.15 129.029 116.097C132.632 106.76 138.459 106.919 146.263 107.44C147.858 107.548 149.561 107.656 151.347 107.688C153.8 107.732 156.158 107.688 158.458 107.637C160.091 107.605 161.699 107.573 163.269 107.573C173.799 107.573 183.96 108.775 192.584 123.343C198.557 133.442 203.203 144.953 207.696 156.032C210.32 162.515 213.034 169.221 215.957 175.52L216.65 177.007C220.304 184.876 223.195 191.092 227.892 198.535C229.563 201.179 230.675 204.573 231.755 207.853C233.287 212.499 234.869 217.298 237.958 219.751L238.174 219.917L241.466 227.601C242.49 229.161 243.647 230.63 244.923 231.993C246.937 234.3 249.021 236.684 250.007 239.309C250.944 241.753 251.305 244.381 251.061 246.987C250.915 249.529 250.858 250.483 255.764 252.536C257.728 253.356 259.424 253.216 260.988 253.171C261.452 253.171 261.916 253.171 262.379 253.171C264.513 253.083 266.625 253.641 268.436 254.773C270.272 255.943 271.333 257.805 272.363 259.604C273.392 261.403 274.397 263.157 276.1 264.053C278.178 265.172 281.311 265.267 284.622 265.362C290.894 265.54 298.005 265.75 299.981 273.377C302.523 283.134 290.487 291.143 279.874 298.21C273.945 302.158 268.34 305.889 266.097 309.334C254.086 327.817 254.576 338.826 258.554 359.546C260.428 369.303 258.605 378.398 253.553 384.513C249.701 389.248 244.236 391.733 237.811 391.733ZM163.275 291.206C172.896 291.206 178.362 297.626 179.982 310.846C180.7 316.681 182.766 320.558 184.958 324.671C186.832 327.967 188.373 331.442 189.559 335.044C191.186 340.262 190.582 345.665 189.997 350.896C189.514 355.173 189.019 359.597 189.775 363.849C193.048 382.326 204.537 384.138 219.077 386.432C223.03 387.068 227.123 387.704 231.228 388.74C233.389 389.298 235.611 389.59 237.843 389.61C243.613 389.61 248.494 387.392 251.964 383.197C256.539 377.661 258.242 368.979 256.514 359.985C252.51 339.156 251.977 327.258 264.362 308.215C266.841 304.401 272.624 300.549 278.743 296.475C288.765 289.808 300.121 282.244 297.973 273.949C296.391 267.86 290.665 267.695 284.628 267.523C281.056 267.415 277.682 267.32 275.159 265.96C272.929 264.752 271.74 262.68 270.59 260.672C269.643 259.025 268.753 257.494 267.362 256.572C265.315 255.263 263.333 255.269 261.121 255.339C259.323 255.383 257.378 255.517 255.014 254.532C249.015 252.027 248.824 250.082 249.009 246.904C249.234 244.592 248.916 242.259 248.081 240.091C247.16 237.853 245.253 235.597 243.347 233.404C241.953 231.909 240.698 230.29 239.597 228.567L236.452 221.258C233.007 218.378 231.368 213.37 229.766 208.546C228.68 205.24 227.65 202.126 226.119 199.698C221.352 192.141 218.435 185.874 214.75 177.935L214.057 176.448C211.108 170.091 208.382 163.373 205.751 156.865C201.303 145.83 196.664 134.421 190.773 124.449C182.708 110.828 173.557 109.722 163.288 109.722C161.731 109.722 160.142 109.722 158.515 109.785C156.189 109.836 153.8 109.881 151.328 109.836C149.491 109.804 147.756 109.69 146.13 109.582C144.503 109.474 142.99 109.372 141.592 109.372C136.731 109.372 133.439 110.599 131.018 116.885C130.382 118.525 130.471 120.591 130.567 122.783C130.662 125.084 130.764 127.461 130.02 129.597C129.022 132.445 127.129 134.733 125.292 136.945C123.784 138.617 122.486 140.468 121.428 142.455C118.066 149.523 117.45 158.174 116.846 166.532C116.668 169.075 116.49 171.585 116.211 174C115.359 182.098 117.24 184.672 120.087 188.569C122.301 191.409 124.11 194.543 125.464 197.88C129.74 208.52 128.006 218.22 120.24 226.692C111.578 236.226 106.717 242.779 100.997 252.752C99.1223 255.919 97.0816 258.985 94.8839 261.936C90.1495 268.509 86.0633 274.191 85.4151 283.344C85.18 286.642 84.7796 289.935 84.4364 293.126C83.7628 298.91 83.0765 304.891 83.2926 310.853C83.6548 320.482 89.3805 343.999 98.4553 343.999C100.857 343.999 103.45 342.296 106.164 338.915C109.208 335.145 110.612 330.321 111.959 325.662C113.44 320.577 114.972 315.302 118.632 311.202C123.659 305.583 133.668 300.257 141.357 297.143C148.811 294.162 156.672 291.206 163.275 291.206Z" fill="url(#paint5_linear_7724_14661)"/>
<path d="M232.073 374.63C228.762 374.63 224.657 373.441 219.878 371.096C203.775 363.208 203.406 353.426 202.936 341.038C202.752 336.239 202.561 331.269 201.461 325.783C200.191 319.51 198.329 315.296 196.339 310.828C195.24 308.374 194.109 305.832 193.003 302.806C191.764 299.399 191.732 296.12 191.669 293.228C191.599 288.372 191.542 284.539 186.585 281.227C181.107 277.61 174.668 275.726 168.105 275.818C142.933 275.818 115.645 299.844 109.83 319.739C107.072 329.177 104.245 333.576 100.934 333.576C98.8937 333.576 96.9936 331.904 95.1316 328.491C92.1703 323.025 92.5261 311.889 92.7613 304.516L92.8248 302.438C93.0218 294.81 95.4367 282.975 99.1225 276.448C101.398 272.431 104.937 269.119 108.362 265.916C110.982 263.569 113.407 261.014 115.613 258.276C118.099 255.197 120.769 252.272 123.608 249.517C127.662 245.405 131.869 241.159 134.195 236.875C136.349 232.947 138.275 227.862 140.15 222.949C141.421 219.542 142.781 216.021 144.16 212.982C147.591 205.444 147.483 196.876 147.076 188.753C147.076 188.276 147.032 187.552 147.013 186.687C146.943 183.668 146.81 178.05 146.123 176.422C145.005 173.778 143.435 173.041 141.452 172.107C139.743 171.415 138.198 170.374 136.915 169.049C132.365 164.073 130.56 156.426 131.755 147.515C133.28 136.411 139.298 125.835 146.727 121.195C150.732 118.626 155.384 117.248 160.142 117.222C170.145 117.222 180.948 123.578 189.05 134.225C195.793 143.085 199.752 154.628 203.59 165.801C205.554 171.522 207.403 176.925 209.602 181.952C211.051 185.289 212.989 189.007 215.042 192.955C220.59 203.639 226.887 215.747 226.678 225.955L227.682 236.951C229.728 238.267 231.018 241.699 232.499 245.614C233.77 248.939 235.041 252.365 236.744 254.151C237.595 255.003 238.549 255.747 239.584 256.363C241.223 257.301 242.635 258.588 243.721 260.132C244.897 261.854 245.145 264.308 245.38 266.678C245.603 268.82 245.825 271.045 246.74 271.992C249.282 274.611 252.834 274.312 256.196 274.191C257.035 274.153 257.874 274.121 258.7 274.121C261.966 274.121 265.646 274.604 268.169 278.176C269.986 280.719 270.666 283.388 270.177 286.02C269.071 292.058 262.221 296.66 257.226 300.003L257.041 300.124C255.561 301.122 254.074 302.031 252.593 302.882C246.975 306.245 242.126 309.15 240.379 316.408C238.371 324.709 240.5 338.216 241.504 343.637C244.109 357.659 243.531 366.697 239.743 371.255C237.932 373.498 235.339 374.63 232.073 374.63ZM168.086 273.676C175.069 273.583 181.92 275.591 187.748 279.441C193.651 283.369 193.721 288.136 193.798 293.177C193.836 296.037 193.88 298.993 194.999 302.075C196.079 305.037 197.197 307.541 198.278 309.963C200.318 314.539 202.243 318.862 203.546 325.364C204.474 330.52 204.98 335.743 205.058 340.981C205.516 353.114 205.853 361.879 220.812 369.208C229.264 373.352 235.066 373.657 238.148 369.932C241.465 365.947 241.904 357.22 239.457 344.063C238.421 338.508 236.248 324.646 238.352 315.944C240.309 307.821 245.761 304.554 251.538 301.096C252.961 300.245 254.423 299.374 255.866 298.401L256.056 298.236C260.746 295.058 267.165 290.768 268.131 285.613C268.512 283.528 267.972 281.494 266.478 279.378C264.623 276.759 262.03 276.2 258.738 276.2C257.937 276.2 257.124 276.2 256.31 276.263C255.497 276.327 254.639 276.321 253.807 276.321C250.972 276.321 247.738 275.977 245.253 273.416C243.823 271.941 243.569 269.462 243.308 266.844C243.092 264.733 242.87 262.547 242.037 261.276C241.108 259.967 239.899 258.881 238.498 258.098C237.317 257.392 236.232 256.537 235.269 255.555C233.28 253.464 231.908 249.835 230.58 246.307C229.309 242.97 227.891 239.176 226.347 238.546L225.75 238.299L224.631 225.974C224.822 216.186 218.658 204.364 213.224 193.876C211.159 189.897 209.208 186.141 207.721 182.747C205.497 177.662 203.629 172.196 201.646 166.431C197.871 155.422 193.963 144.038 187.43 135.458C179.728 125.332 169.554 119.294 160.212 119.294C155.852 119.32 151.589 120.585 147.922 122.943C140.995 127.265 135.371 137.231 133.941 147.731C132.81 155.994 134.449 163.043 138.561 167.549C139.664 168.659 140.986 169.525 142.444 170.092C144.547 171.083 146.727 172.107 148.163 175.494C148.951 177.344 149.116 181.965 149.224 186.541C149.224 187.387 149.263 188.086 149.288 188.55C149.701 196.94 149.809 205.794 146.18 213.771C144.833 216.739 143.562 220.076 142.221 223.61C140.315 228.593 138.37 233.741 136.152 237.796C133.661 242.347 129.365 246.695 125.209 250.909C122.43 253.599 119.819 256.458 117.393 259.471C115.107 262.291 112.592 264.919 109.875 267.327C106.418 270.562 103.151 273.619 101.042 277.35C97.5592 283.509 95.2015 295.147 95.0109 302.355L94.9473 304.446C94.7313 311.152 94.3754 322.383 97.0635 327.328C98.4552 329.87 99.8533 331.319 100.997 331.319C102.141 331.319 104.715 329.724 107.848 319.014C113.79 298.535 142.037 273.676 168.086 273.676Z" fill="url(#paint6_linear_7724_14661)"/>
<path d="M218.791 350.069C218.639 350.069 218.48 350.069 218.328 350.069L217.533 350.031L217.349 349.256C212.996 330.963 210.073 313.471 207.556 297.289C206.698 291.765 204.379 287.437 201.875 282.854C200.604 280.464 199.238 277.985 198.062 275.227C197.426 273.778 196.931 272.506 196.48 271.369C194.173 265.534 193.55 263.964 185.041 262.032C178.527 260.551 173.291 259.864 168.563 259.864C158.738 259.864 150.871 262.922 143.778 269.481C142.406 270.752 140.741 272.449 138.815 274.413C130.764 282.619 118.6 295.013 108.947 295.013C108.141 295.016 107.337 294.926 106.552 294.746L105.408 294.479L105.789 293.367C107.003 289.808 109.742 287.647 112.398 285.543C113.979 284.373 115.439 283.049 116.758 281.589C118.778 279.174 120.265 276.422 121.841 273.504C123.417 270.587 125.108 267.447 127.383 264.79C128.857 263.074 131.056 261.612 133.185 260.252C135.689 258.612 138.269 256.915 139.489 254.875C140.862 252.555 141.262 249.44 141.688 246.142C142.075 243.129 142.476 240.014 143.651 237.243C144.541 235.133 145.463 233.01 146.39 230.887C152.593 216.567 159.005 201.751 158.732 185.651C158.674 182.575 157.791 178.297 156.825 173.765C153.978 160.017 150.432 142.907 164.762 138.902C166.239 138.486 167.765 138.272 169.3 138.267C181.374 138.267 185.975 153.051 189.686 164.962C190.995 169.163 192.228 173.136 193.594 175.634C195.122 178.306 196.853 180.856 198.774 183.261C201.08 186.299 203.464 189.446 205.319 193.774C207.353 198.516 209.03 203.111 210.81 207.973C211.445 209.702 212.081 211.45 212.716 213.23H212.989H213.511C214.067 213.192 214.625 213.218 215.176 213.306L216.091 213.484L214.966 231.415V233.251C214.966 243.275 214.928 254.633 218.855 263.036C220.425 266.398 224.441 270.059 228.33 273.606C233.675 278.475 239.197 283.515 239.508 288.651C239.756 292.814 236.82 295.356 234.234 297.606C232.696 298.941 231.247 300.2 230.529 301.662C228.661 305.475 228.705 309.448 228.756 314.024C228.756 314.774 228.756 315.543 228.756 316.331C228.756 317.387 228.807 318.74 228.864 320.304C229.163 328.567 229.665 342.334 224.416 347.781C223.685 348.527 222.808 349.116 221.841 349.509C220.874 349.903 219.836 350.093 218.791 350.069V350.069ZM168.556 257.735C173.449 257.735 178.832 258.44 185.505 259.953C195.101 262.133 196.016 264.434 198.443 270.581C198.882 271.699 199.384 272.951 200 274.394C201.15 277.057 202.466 279.479 203.743 281.843C206.285 286.591 208.738 291.072 209.653 296.965C212.125 312.855 214.991 330.016 219.185 347.946C220.603 347.878 221.938 347.258 222.903 346.218C227.536 341.419 227.053 328.192 226.767 320.291C226.71 318.702 226.659 317.323 226.659 316.242C226.659 315.467 226.659 314.704 226.659 313.961C226.602 309.111 226.557 304.922 228.648 300.613C229.557 298.763 231.241 297.301 232.868 295.884C235.301 293.774 237.602 291.778 237.411 288.664C237.157 284.386 231.952 279.644 226.926 275.062C222.693 271.203 218.703 267.568 216.955 263.818C212.843 255.015 212.843 243.389 212.881 233.15V231.243L213.879 215.245H213.638C212.999 215.289 212.357 215.244 211.731 215.111L211.197 214.971L211.007 214.457C210.257 212.467 209.545 210.522 208.846 208.603C207.079 203.766 205.408 199.202 203.4 194.505C201.646 190.424 199.441 187.513 197.109 184.443C195.126 181.947 193.339 179.302 191.764 176.53C190.303 173.848 189.089 169.964 187.684 165.47C184.183 154.258 179.83 140.294 169.331 140.294C167.989 140.308 166.655 140.505 165.366 140.879C152.949 144.349 156.266 160.379 158.941 173.263C159.894 177.897 160.803 182.27 160.848 185.543C161.127 202.107 154.626 217.133 148.335 231.662C147.407 233.781 146.496 235.9 145.602 238.018C144.535 240.561 144.153 243.523 143.785 246.389C143.334 249.917 142.902 253.241 141.313 255.923C139.858 258.39 137.049 260.227 134.322 261.994C132.232 263.36 130.255 264.657 128.978 266.144C126.849 268.623 125.241 271.604 123.691 274.483C122.14 277.362 120.513 280.343 118.365 282.918C116.958 284.493 115.393 285.92 113.694 287.176C111.527 288.892 109.462 290.526 108.28 292.833C117.075 293.507 129.315 281.043 137.309 272.888C139.26 270.911 140.938 269.195 142.349 267.892C149.835 260.97 158.191 257.735 168.556 257.735Z" fill="url(#paint7_linear_7724_14661)"/>
</g>
<defs>
<linearGradient id="paint0_linear_7724_14661" x1="39.5" y1="392" x2="376" y2="201.5" gradientUnits="userSpaceOnUse">
<stop stop-color="#3843D0"/>
<stop offset="0.581731" stop-color="#687BEB"/>
<stop offset="1" stop-color="#8AA4FF"/>
</linearGradient>
<linearGradient id="paint1_linear_7724_14661" x1="57.9001" y1="375.942" x2="361.58" y2="212.822" gradientUnits="userSpaceOnUse">
<stop stop-color="#3843D0"/>
<stop offset="0.581731" stop-color="#687BEB"/>
<stop offset="1" stop-color="#8AA4FF"/>
</linearGradient>
<linearGradient id="paint2_linear_7724_14661" x1="68.4245" y1="368.939" x2="347.798" y2="227.721" gradientUnits="userSpaceOnUse">
<stop stop-color="#3843D0"/>
<stop offset="0.581731" stop-color="#687BEB"/>
<stop offset="1" stop-color="#8AA4FF"/>
</linearGradient>
<linearGradient id="paint3_linear_7724_14661" x1="75.6308" y1="360.388" x2="309.34" y2="258.387" gradientUnits="userSpaceOnUse">
<stop stop-color="#3843D0"/>
<stop offset="0.581731" stop-color="#687BEB"/>
<stop offset="1" stop-color="#8AA4FF"/>
</linearGradient>
<linearGradient id="paint4_linear_7724_14661" x1="78.021" y1="349.533" x2="268.638" y2="263.789" gradientUnits="userSpaceOnUse">
<stop stop-color="#3843D0"/>
<stop offset="0.581731" stop-color="#687BEB"/>
<stop offset="1" stop-color="#8AA4FF"/>
</linearGradient>
<linearGradient id="paint5_linear_7724_14661" x1="96.5623" y1="333.108" x2="247.93" y2="274.971" gradientUnits="userSpaceOnUse">
<stop stop-color="#3843D0"/>
<stop offset="0.581731" stop-color="#687BEB"/>
<stop offset="1" stop-color="#8AA4FF"/>
</linearGradient>
<linearGradient id="paint6_linear_7724_14661" x1="105.129" y1="321.585" x2="231.041" y2="278.251" gradientUnits="userSpaceOnUse">
<stop stop-color="#3843D0"/>
<stop offset="0.581731" stop-color="#687BEB"/>
<stop offset="1" stop-color="#8AA4FF"/>
</linearGradient>
<linearGradient id="paint7_linear_7724_14661" x1="114.855" y1="306.424" x2="211.5" y2="275.92" gradientUnits="userSpaceOnUse">
<stop stop-color="#3843D0"/>
<stop offset="0.581731" stop-color="#687BEB"/>
<stop offset="1" stop-color="#8AA4FF"/>
</linearGradient>
</defs>
</svg>
