<svg width="1526" height="431" viewBox="0 0 1526 431" fill="none" xmlns="http://www.w3.org/2000/svg">
<path d="M412.293 29.2499C359.611 29.2499 316.538 72.3232 316.538 125.336C316.538 178.018 359.611 221.092 412.293 221.092C445.426 221.092 475.909 204.194 493.47 176.362C493.47 176.362 494.464 174.705 496.783 174.705C497.446 174.705 498.44 175.036 499.765 175.699L511.362 182.326C511.362 182.326 515.669 184.976 513.018 188.952C491.15 223.411 453.378 244.285 412.293 244.285C346.689 244.285 293.345 190.94 293.345 125.336C293.345 59.4012 346.689 6.05664 412.293 6.05664C453.71 6.05664 492.144 27.2619 513.681 62.0519C515.338 65.0339 513.35 68.0159 512.024 68.6785L500.096 75.6365C498.771 75.9679 497.777 76.2992 497.114 76.2992C494.795 76.2992 493.801 74.6425 493.801 74.6425C476.572 46.4792 445.758 29.2499 412.293 29.2499Z" fill="white"/>
<path d="M614.577 242.96C568.522 242.96 531.081 205.519 531.081 159.464C531.081 113.408 568.522 75.9679 614.577 75.9679C660.632 75.9679 697.742 113.408 697.742 159.464C697.742 205.519 660.632 242.96 614.577 242.96ZM614.577 99.4925C581.444 99.4925 554.274 126.33 554.274 159.464C554.274 192.597 581.444 219.435 614.577 219.435C647.71 219.435 674.548 192.597 674.548 159.464C674.548 126.33 647.71 99.4925 614.577 99.4925Z" fill="white"/>
<path d="M797.436 76.9619C835.208 76.9619 865.691 107.444 865.691 145.216V236.002C865.691 238.984 863.372 241.634 860.39 241.634H847.799C844.817 241.634 842.498 239.315 842.498 236.333V145.216C842.498 120.366 822.286 100.155 797.436 100.155C772.918 100.155 752.706 120.366 752.706 145.216V236.333C752.375 239.315 750.056 241.634 747.074 241.634H734.815C731.833 241.634 729.513 238.984 729.513 236.002V84.9138C729.513 81.6005 731.833 79.2812 735.146 79.2812H747.074C750.056 79.2812 752.375 81.6005 752.706 84.5825V86.5705C752.706 89.2212 754.032 90.2152 755.688 90.2152C756.351 90.2152 757.014 90.2152 757.676 89.8838C768.942 81.6005 782.526 76.9619 797.436 76.9619Z" fill="white"/>
<path d="M972.085 76.9619C1009.86 76.9619 1040.34 107.444 1040.34 145.216V236.002C1040.34 238.984 1038.02 241.634 1035.04 241.634H1022.45C1019.47 241.634 1017.15 239.315 1017.15 236.333V145.216C1017.15 120.366 996.935 100.155 972.085 100.155C947.566 100.155 927.355 120.366 927.355 145.216V236.333C927.024 239.315 924.704 241.634 921.722 241.634H909.463C906.481 241.634 904.162 238.984 904.162 236.002V84.9138C904.162 81.6005 906.481 79.2812 909.794 79.2812H921.722C924.704 79.2812 927.024 81.6005 927.355 84.5825V86.5705C927.355 89.2212 928.68 90.2152 930.337 90.2152C931 90.2152 931.662 90.2152 932.325 89.8838C943.59 81.6005 957.175 76.9619 972.085 76.9619Z" fill="white"/>
<path d="M1154.35 76.2992C1198.75 76.2992 1238.84 111.089 1238.18 165.428C1237.85 168.741 1235.53 171.06 1232.22 171.392H1100.02C1097.37 171.392 1096.04 173.38 1096.37 175.368C1103.33 200.88 1126.85 219.766 1154.35 219.766C1173.57 219.766 1192.13 210.158 1203.06 194.916C1204.05 193.591 1205.71 192.597 1207.7 192.597C1208.69 192.597 1209.69 192.928 1210.35 193.26L1221.28 199.555C1223.6 201.212 1224.6 204.525 1223.27 206.844C1207.37 229.706 1181.85 243.291 1154.35 243.291C1108.3 243.291 1070.86 205.85 1070.86 159.795C1070.86 113.74 1108.3 76.2992 1154.35 76.2992ZM1154.35 99.4925C1126.85 99.4925 1103.33 118.378 1096.37 143.891C1096.04 145.879 1097.37 147.867 1100.02 148.198H1208.69C1211.34 147.867 1212.67 145.879 1212.34 143.891C1205.38 118.378 1182.19 99.4925 1154.35 99.4925Z" fill="white"/>
<path d="M1417.44 191.603C1419.1 192.266 1419.76 193.922 1419.76 195.579C1419.76 196.573 1419.76 197.236 1419.1 197.898C1404.85 225.73 1376.36 243.291 1345.21 243.291C1299.16 243.291 1261.72 205.85 1261.72 159.795C1261.72 113.74 1299.16 76.2992 1345.21 76.2992C1376.03 76.2992 1404.52 93.8598 1418.77 121.029C1419.1 121.36 1419.43 122.023 1419.43 122.686C1419.43 124.674 1418.44 126.33 1417.11 126.993L1404.52 132.626C1403.53 133.288 1402.2 133.288 1401.21 133.288C1399.88 133.288 1398.89 132.957 1398.23 131.632C1387.95 112.083 1367.41 99.8238 1345.21 99.8238C1312.08 99.8238 1284.91 126.662 1284.91 159.795C1284.91 192.928 1312.08 219.766 1345.21 219.766C1367.74 219.766 1388.62 207.176 1398.89 186.964C1399.22 185.97 1400.54 185.308 1401.87 185.308C1402.86 185.308 1403.86 185.639 1404.85 185.97L1417.44 191.603Z" fill="white"/>
<path d="M1484.67 102.474C1481.36 102.474 1478.71 105.125 1478.71 108.438V182.988C1478.71 207.838 1489.64 217.447 1519.46 218.441C1522.44 218.441 1525.09 221.092 1525.09 224.405V236.333C1525.09 239.315 1523.1 241.634 1520.12 241.966C1481.69 240.972 1455.51 225.068 1455.51 182.988V107.776C1455.18 104.794 1452.53 102.474 1449.55 102.474H1440.6C1437.95 102.143 1435.96 100.486 1435.63 98.1671V83.9198C1436.3 81.2692 1438.28 79.2812 1440.93 79.2812H1450.21C1452.86 78.9498 1455.18 76.9619 1455.51 73.9798V15.6653C1455.51 12.352 1457.83 10.0326 1461.15 10.0326H1473.07C1476.06 10.0326 1478.37 12.352 1478.71 15.334V73.3172C1478.71 76.6305 1481.03 78.9498 1484.01 79.2812H1519.79C1522.77 79.2812 1525.09 81.9318 1525.09 84.9138V97.1731C1525.09 99.8238 1523.1 102.143 1520.12 102.474H1484.67Z" fill="white"/>
<path d="M1043.6 342.098C1060.55 342.098 1074.21 355.887 1074.21 372.723C1074.21 389.682 1060.55 403.47 1043.6 403.47C1035.91 403.47 1028.96 400.67 1023.48 396.022H1023.6V399.562C1023.6 401.285 1022.13 402.609 1020.43 402.732H1016.03C1014.34 402.609 1012.99 401.377 1012.86 399.685V321.231C1013.11 319.63 1014.43 318.307 1016.03 318.307H1020.43C1022.16 318.307 1023.6 319.784 1023.6 321.477V349.424C1023.6 349.424 1023.6 349.547 1023.48 349.547L1023.6 349.424C1028.96 344.93 1035.91 342.098 1043.6 342.098ZM1043.6 392.852C1054.58 392.852 1063.6 383.834 1063.6 372.723C1063.6 361.735 1054.58 352.717 1043.6 352.717C1032.49 352.717 1023.6 361.735 1023.6 372.723C1023.6 383.834 1032.49 392.852 1043.6 392.852Z" fill="white"/>
<path d="M1131.87 343.082H1136.52C1138.58 343.082 1139.44 344.313 1139.44 345.636C1139.44 346.005 1139.44 346.375 1139.32 346.621L1111.87 410.302C1103.84 426.768 1091.63 429.692 1082.49 430.061C1080.89 429.938 1079.57 428.492 1079.57 426.768V422.613C1079.57 419.566 1082.12 419.32 1082.74 419.32C1089.44 418.95 1096.89 416.273 1102.24 405.777L1103.1 403.592C1103.35 402.976 1103.47 402.238 1103.47 401.776C1103.47 401.16 1103.35 400.545 1103.1 400.052C1095.41 382.478 1087.38 364.319 1079.57 346.744C1079.44 346.375 1079.32 346.005 1079.32 345.636C1079.32 344.313 1080.31 343.082 1082.24 343.082H1086.98C1088.46 343.082 1089.66 343.574 1090.52 345.39L1109.53 388.572C1109.66 388.572 1109.66 388.449 1109.66 388.449L1128.09 345.636C1128.92 343.697 1130.27 343.082 1131.87 343.082Z" fill="white"/>
<path d="M1233.98 321.632V399.717C1233.98 401.41 1232.63 402.764 1230.94 402.887H1226.45C1224.72 402.764 1223.4 401.41 1223.4 399.717V396.054V396.177C1218.05 400.671 1210.97 403.626 1203.4 403.626C1186.45 403.626 1172.67 389.837 1172.67 372.878C1172.67 355.919 1186.45 342.254 1203.4 342.254C1210.97 342.254 1217.92 344.931 1223.28 349.579L1223.4 349.702C1223.4 349.579 1223.4 349.579 1223.4 349.579V321.509C1223.52 319.816 1224.88 318.462 1226.57 318.462H1230.85C1232.66 318.462 1233.98 319.909 1233.98 321.632ZM1203.37 392.853C1214.36 392.853 1223.37 383.958 1223.37 372.847C1223.37 361.859 1214.36 352.841 1203.37 352.841C1192.27 352.841 1183.37 361.859 1183.37 372.847C1183.37 383.958 1192.3 392.853 1203.37 392.853Z" fill="white"/>
<path d="M1259.09 321.632V326.988C1259.09 328.711 1257.61 330.158 1255.92 330.158H1251.65C1249.83 330.158 1248.35 328.68 1248.35 326.988V321.632C1248.35 319.816 1249.83 318.339 1251.65 318.339H1255.92C1257.61 318.339 1259.09 319.785 1259.09 321.632ZM1259.09 346.132V399.44C1259.09 401.256 1257.61 402.733 1255.92 402.733H1251.65C1249.83 402.733 1248.35 401.256 1248.35 399.44V346.132C1248.35 344.316 1249.83 342.838 1251.65 342.838H1255.92C1257.61 342.838 1259.09 344.316 1259.09 346.132Z" fill="white"/>
<path d="M1338.81 342.097C1352.71 342.097 1364.07 353.454 1364.07 367.366V399.683C1364.07 401.253 1362.59 402.607 1361.02 402.73H1356.5C1354.78 402.607 1353.45 401.253 1353.45 399.56V367.366C1353.45 359.302 1346.87 352.715 1338.81 352.715C1330.78 352.715 1324.16 359.302 1324.16 367.366V399.683C1324.04 401.376 1322.69 402.607 1320.99 402.73H1316.59C1314.87 402.607 1313.42 401.253 1313.42 399.56V367.366C1313.42 359.302 1306.84 352.715 1298.78 352.715C1290.72 352.715 1284.13 359.302 1284.13 367.366V399.56C1284.13 401.284 1282.78 402.607 1281.09 402.73H1276.57C1274.97 402.607 1273.52 401.253 1273.52 399.683V346.006C1273.52 344.313 1275 342.835 1276.69 342.835H1280.97C1282.69 342.835 1284.13 344.313 1284.13 346.006V346.744C1288.29 343.82 1293.4 342.097 1298.78 342.097C1306.81 342.097 1314.01 345.759 1318.78 351.73H1318.9C1323.58 346.006 1330.78 342.097 1338.81 342.097Z" fill="white"/>
<path d="M1424.61 342.959H1428.89C1430.61 342.959 1431.93 344.313 1432.06 345.883V399.806C1431.93 401.53 1430.58 402.73 1429.01 402.73H1424.61C1422.8 402.73 1421.44 401.253 1421.44 399.56V396.144C1421.44 396.021 1421.44 396.02 1421.44 396.02V396.144C1417.04 400.299 1408.89 403.469 1401.45 403.469C1384.49 403.469 1370.71 389.803 1370.71 372.844C1370.71 355.885 1384.49 342.097 1401.45 342.097C1408.89 342.097 1415.97 344.898 1421.44 349.545V346.129C1421.44 344.436 1422.89 342.959 1424.61 342.959ZM1401.45 392.85C1412.43 392.85 1421.44 383.832 1421.44 372.844C1421.44 361.733 1412.43 352.838 1401.45 352.838C1390.34 352.838 1381.45 361.733 1381.45 372.844C1381.45 383.832 1390.34 392.85 1401.45 392.85Z" fill="white"/>
<path d="M1492.73 342.835H1497.01C1498.58 342.835 1499.93 344.19 1500.18 345.759V407.839C1500.18 423.198 1490.3 429.446 1476.27 429.784C1474.46 429.784 1473.1 428.43 1473.1 426.614V422.398C1473.1 420.674 1474.46 419.227 1476.27 419.227C1484.46 418.981 1489.44 417.165 1489.44 407.87V396.02C1484.09 400.668 1477.13 403.469 1469.44 403.469C1452.61 403.469 1438.83 389.68 1438.83 372.721C1438.83 355.886 1452.61 342.097 1469.44 342.097C1476.89 342.097 1483.84 344.775 1489.19 349.176C1489.32 349.422 1489.44 349.422 1489.44 349.545L1489.56 346.129C1489.56 344.313 1490.92 342.835 1492.73 342.835ZM1469.44 392.85C1480.55 392.85 1489.44 383.832 1489.44 372.721C1489.44 361.733 1480.55 352.715 1469.44 352.715C1458.46 352.715 1449.44 361.733 1449.44 372.721C1449.44 383.832 1458.46 392.85 1469.44 392.85Z" fill="white"/>
<path d="M1524.63 321.632V326.988C1524.63 328.711 1523.16 330.158 1521.47 330.158H1517.19C1515.34 330.158 1513.9 328.68 1513.9 326.988V321.632C1513.9 319.816 1515.37 318.339 1517.19 318.339H1521.47C1523.19 318.339 1524.63 319.785 1524.63 321.632ZM1524.63 346.132V399.44C1524.63 401.256 1523.16 402.733 1521.47 402.733H1517.19C1515.34 402.733 1513.9 401.256 1513.9 399.44V346.132C1513.9 344.316 1515.37 342.838 1517.19 342.838H1521.47C1523.19 342.838 1524.63 344.316 1524.63 346.132Z" fill="white"/>
<path d="M18.6841 128.139C16.8503 126.605 12.8259 121.49 9.56407 116.585C-4.7083 95.0877 -2.91544 69.3103 14.3302 50.3725C22.5169 41.5528 49.4666 26.1201 65.3249 21.4748C90.372 14.0341 122.316 9.11683 168.118 5.67202L184.346 4.51562L162.633 15.8549C115.018 41.0689 66.9929 78.8959 33.4348 117.85C27.6498 124.666 22.6152 130.252 22.3718 130.39C22.0067 130.597 20.4488 129.551 18.6841 128.139Z" fill="white"/>
<path d="M216.693 1.25915C201.165 3.91704 176.265 16.9267 151.645 35.3921C100.026 74.1413 57.4994 132.615 45.8886 180.737C38.6144 211.372 46.0285 237.252 66.1725 251.101C73.5866 256.137 91.7722 262.432 93.4509 260.474C94.1503 259.774 95.4093 254.179 96.3885 248.023C97.3678 242.008 99.8858 229.558 102.124 220.605C124.506 128.698 175.006 51.899 239.495 11.7508C251.665 4.19682 251.665 3.63726 238.516 1.25915C229.143 -0.419521 227.465 -0.419521 216.693 1.25915Z" fill="white"/>
</svg>
