<svg width="477" height="501" viewBox="0 0 477 501" fill="none" xmlns="http://www.w3.org/2000/svg">
<path d="M35.8379 245.778C32.3206 242.836 24.6013 233.024 18.3448 223.616C-9.03098 182.382 -5.5921 132.939 27.4867 96.6143C43.1896 79.6971 94.8817 50.0957 125.3 41.1855C173.342 26.9137 234.614 17.4818 322.467 10.8743L353.593 8.65625L311.947 30.406C220.616 78.7691 128.499 151.325 64.1312 226.044C53.0349 239.117 43.3782 249.832 42.9113 250.096C42.211 250.493 39.2229 248.486 35.8379 245.778Z" fill="white"/>
<path d="M415.645 2.41522C385.861 7.51331 338.1 32.4672 290.876 67.8855C191.865 142.21 110.296 254.369 88.0251 346.671C74.0724 405.433 88.2934 455.073 126.932 481.636C141.153 491.296 176.034 503.37 179.254 499.614C180.596 498.272 183.011 487.539 184.889 475.733C186.767 464.195 191.597 440.315 195.89 423.142C238.821 246.856 335.685 99.5474 459.381 22.5393C482.725 8.04995 482.725 6.97667 457.503 2.41522C439.525 -0.804634 436.306 -0.804634 415.645 2.41522Z" fill="white"/>
</svg>
