<svg width="468" height="351" viewBox="0 0 468 351" fill="none" xmlns="http://www.w3.org/2000/svg">
<path d="M140 240C140 204.654 111.346 176 76 176H0V287C0 322.346 28.6538 351 64 351H140V240Z" fill="#16006D"/>
<path d="M35 175.5C35 156.446 50.4462 141 69.5 141H210V175.5C210 194.554 194.554 210 175.5 210H35V175.5Z" fill="#3843D0"/>
<path fill-rule="evenodd" clip-rule="evenodd" d="M35.0003 176H76.0003C100.506 176 121.794 189.773 132.548 210H35.0003V176Z" fill="#8EA1FF"/>
<path d="M210 137.057C210 113.83 228.83 95 252.057 95H302V167.943C302 191.17 283.17 210 259.943 210H210V137.057Z" fill="#16006D"/>
<path d="M279 94.6714C279 82.1503 268.85 72 256.329 72H164V94.6714C164 107.193 174.15 117.343 186.671 117.343H279V94.6714Z" fill="#3843D0"/>
<path fill-rule="evenodd" clip-rule="evenodd" d="M279 95H252.057C235.954 95 221.964 104.051 214.897 117.343H279V95Z" fill="#8EA1FF"/>
<path d="M199.671 257C199.671 231.043 220.714 210 246.671 210H293.671V304H246.671C220.714 304 199.671 282.957 199.671 257V257Z" fill="#8EA1FF"/>
<path d="M199 351C173.043 351 152 329.957 152 304V257H269.5V304C269.5 329.957 248.457 351 222.5 351H199Z" fill="#3843D0"/>
<path fill-rule="evenodd" clip-rule="evenodd" d="M269.5 304H246.671C220.714 304 199.671 282.957 199.671 257H269.5V304Z" fill="#16006D"/>
<path d="M94 47C94 21.0426 72.9574 0 47 0L0 0V94H47C72.9574 94 94 72.9574 94 47V47Z" fill="#8EA1FF"/>
<path d="M94.6714 141C120.629 141 141.671 119.957 141.671 94V47L24.1714 47V94C24.1714 119.957 45.214 141 71.1714 141H94.6714Z" fill="#3843D0"/>
<path fill-rule="evenodd" clip-rule="evenodd" d="M24.1714 94H47C72.9574 94 94 72.9574 94 47H24.1714V94Z" fill="#16006D"/>
<path d="M352 205.086C352 189.298 364.798 176.5 380.586 176.5H468V205.086C468 220.873 455.202 233.671 439.414 233.671H352V205.086Z" fill="#3843D0"/>
<path d="M294 263.5C294 231.468 319.967 205.5 352 205.5H410V350.5H352C319.967 350.5 294 324.533 294 292.5V263.5Z" fill="#16006D"/>
<path d="M410 233.671V233.671C442.033 233.671 468 260.053 468 292.086V292.086C468 324.118 442.033 350.5 410 350.5V350.5V233.671Z" fill="#8EA1FF"/>
<path fill-rule="evenodd" clip-rule="evenodd" d="M410 233.671H352V205.5H410V233.671Z" fill="#8EA1FF"/>
</svg>
